<?xml version="1.0" encoding="UTF-8" standalone="no"?>
<!-- Created with Inkscape (http://www.inkscape.org/) -->

<svg
   xmlns:dc="http://purl.org/dc/elements/1.1/"
   xmlns:cc="http://creativecommons.org/ns#"
   xmlns:rdf="http://www.w3.org/1999/02/22-rdf-syntax-ns#"
   xmlns:svg="http://www.w3.org/2000/svg"
   xmlns="http://www.w3.org/2000/svg"
   xmlns:sodipodi="http://sodipodi.sourceforge.net/DTD/sodipodi-0.dtd"
   xmlns:inkscape="http://www.inkscape.org/namespaces/inkscape"
   width="444.87515mm"
   height="504.87283mm"
   viewBox="0 0 444.87515 504.87283"
   version="1.1"
   id="svg8"
   inkscape:version="0.92.5 (2060ec1f9f, 2020-04-08)"
   sodipodi:docname="polarized.svg">
  <defs
     id="defs2" />
  <sodipodi:namedview
     id="base"
     pagecolor="#ffffff"
     bordercolor="#666666"
     borderopacity="1.0"
     inkscape:pageopacity="0.0"
     inkscape:pageshadow="2"
     inkscape:zoom="0.49718694"
     inkscape:cx="1367.15"
     inkscape:cy="1095.243"
     inkscape:document-units="mm"
     inkscape:current-layer="layer1"
     showgrid="false"
     showborder="true"
     width="200mm"
     showguides="true"
     inkscape:guide-bbox="true"
     inkscape:window-width="2500"
     inkscape:window-height="1430"
     inkscape:window-x="29"
     inkscape:window-y="84"
     inkscape:window-maximized="0"
     inkscape:snap-global="false">
    <inkscape:grid
       type="xygrid"
       id="grid815"
       units="mm"
       spacingx="10"
       spacingy="10"
       empspacing="4"
       dotted="false"
       originx="162.83558"
       originy="163.56559" />
  </sodipodi:namedview>
  <metadata
     id="metadata5">
    <rdf:RDF>
      <cc:Work
         rdf:about="">
        <dc:format>image/svg+xml</dc:format>
        <dc:type
           rdf:resource="http://purl.org/dc/dcmitype/StillImage" />
        <dc:title />
      </cc:Work>
    </rdf:RDF>
  </metadata>
  <g
     inkscape:label="Layer 1"
     inkscape:groupmode="layer"
     id="layer1"
     transform="translate(162.83558,44.307253)">
    <rect
       style="fill:#455f6e;fill-opacity:1;stroke:#455f6e;stroke-width:2.04469204;stroke-miterlimit:4;stroke-dasharray:none;stroke-dashoffset:0;stroke-opacity:1;marker-start:none;marker-end:none"
       id="rect861"
       width="320"
       height="60.098503"
       x="-92.315056"
       y="75.643524"
       ry="2.4747527e-07" />
    <path
       style="fill:none;stroke:#ff4051;stroke-width:0.87800008;stroke-linecap:butt;stroke-linejoin:miter;stroke-miterlimit:4;stroke-dasharray:none;stroke-opacity:1"
       d="M -92.315052,105.69275 H 227.68495"
       id="path865"
       inkscape:connector-curvature="0" />
    <path
       style="fill:none;stroke:#ffffff;stroke-width:1.06500006;stroke-linecap:butt;stroke-linejoin:miter;stroke-miterlimit:4;stroke-dasharray:none;stroke-opacity:1"
       d="M -92.315052,105.69275 -62.31505,75.692747"
       id="path880"
       inkscape:connector-curvature="0" />
    <path
       style="fill:none;stroke:#ffffff;stroke-width:1.06599998;stroke-linecap:butt;stroke-linejoin:miter;stroke-miterlimit:4;stroke-dasharray:none;stroke-opacity:1"
       d="m -62.31096,75.688247 49.99591,-49.9955"
       id="path893"
       inkscape:connector-curvature="0" />
    <path
       id="path929"
       style="fill:#0d6d7c;fill-opacity:0.63255819;stroke:#000000;stroke-width:0.32446727px;stroke-linecap:butt;stroke-linejoin:miter;stroke-opacity:1"
       d="m 189.466,123.34629 0.30568,90.16965 M 269.41304,90.999606 269.10735,0.82996301 M 189.466,123.34629 269.10735,0.82996301 M 189.24217,213.53109 268.88355,91.014755"
       inkscape:connector-curvature="0" />
    <path
       style="fill:#c6c6c6;fill-opacity:0.60784314;stroke:none;stroke-width:1.03767145;stroke-miterlimit:4;stroke-dasharray:none;stroke-dashoffset:0;stroke-opacity:1;marker-start:none;marker-end:none"
       d="m 190.46438,167.44376 -0.0839,-44.07588 4.84887,-7.4124 4.8489,-7.4124 14.96183,-0.3885 c 9.58581,-0.2489 14.96145,-0.59988 14.96073,-0.9767 -3.1e-4,-0.37365 -5.28043,-0.50809 -14.47441,-0.36856 l -14.47329,0.21966 34.19951,-52.401394 34.19954,-52.4013674 0.0839,44.0678964 0.0839,44.067887 -39.53582,60.578868 -39.53583,60.57883 z"
       id="path940"
       inkscape:connector-curvature="0" />
    <path
       style="fill:none;stroke:#ffffff;stroke-width:1.30604458;stroke-linecap:butt;stroke-linejoin:miter;stroke-miterlimit:4;stroke-dasharray:3.91813372, 1.30604458;stroke-dashoffset:0;stroke-opacity:1"
       d="M 189.61885,168.43112 269.26019,45.914788"
       id="path942"
       inkscape:connector-curvature="0" />
    <path
       style="fill:none;stroke:#ff2626;stroke-width:0.3249782;stroke-linecap:butt;stroke-linejoin:miter;stroke-miterlimit:4;stroke-dasharray:none;stroke-opacity:1"
       d="M 229.09363,106.44639 228.94079,61.361563"
       id="path965"
       inkscape:connector-curvature="0" />
    <path
       style="fill:none;stroke:#ff2626;stroke-width:0.3249782;stroke-linecap:butt;stroke-linejoin:miter;stroke-miterlimit:4;stroke-dasharray:none;stroke-opacity:1"
       d="m 229.09363,106.44639 0.15285,45.0848"
       id="path967"
       inkscape:connector-curvature="0" />
    <path
       style="fill:none;fill-opacity:1;stroke:#ffffff;stroke-width:0.70644099;stroke-miterlimit:4;stroke-dasharray:none;stroke-dashoffset:0;stroke-opacity:1;marker-start:none;marker-end:none"
       d="m -92.315052,105.69275 c 3.809521,-8.990703 7.61905,-17.884663 11.428571,-23.493433 3.809522,-5.60879 7.61904,-7.7991 11.42858,-5.8024 3.809521,1.99668 7.619041,8.15936 11.428561,16.25797 3.80953,8.098593 7.61905,17.973663 11.42858,26.075753 3.80951,8.10211 7.61904,14.25342 11.42856,16.25797 3.80952,2.00456 7.61906,-0.19993 11.42858,-5.8024 3.80952,-5.60246 7.61905,-14.50273 11.42857,-23.49346"
       id="path827"
       inkscape:connector-curvature="0" />
    <path
       inkscape:connector-curvature="0"
       id="path849"
       d="m -12.31505,105.69275 c 3.8095196,-8.990703 7.6190496,-17.884663 11.4285696,-23.493433 3.80952,-5.60879 7.61906,-7.7991 11.4285804,-5.8024 3.80952,1.99668 7.61905,8.15936 11.42856,16.25797 3.80953,8.098593 7.61905,17.973663 11.42858,26.075753 3.80951,8.10211 7.61904,14.25342 11.42856,16.25797 3.80952,2.00456 7.61906,-0.19993 11.42858,-5.8024 3.80952,-5.60246 7.61905,-14.50273 11.42857,-23.49346"
       style="fill:none;fill-opacity:1;stroke:#ffffff;stroke-width:0.70644099;stroke-miterlimit:4;stroke-dasharray:none;stroke-dashoffset:0;stroke-opacity:1;marker-start:none;marker-end:none" />
    <path
       style="fill:none;fill-opacity:1;stroke:#ffffff;stroke-width:0.70644099;stroke-miterlimit:4;stroke-dasharray:none;stroke-dashoffset:0;stroke-opacity:1;marker-start:none;marker-end:none"
       d="m 67.68494,105.69275 c 3.80953,-8.990703 7.61906,-17.884663 11.42857,-23.493433 3.80952,-5.60879 7.61904,-7.7991 11.42859,-5.8024 3.8095,1.99668 7.61904,8.15936 11.42854,16.25797 3.80955,8.098593 7.61907,17.973663 11.4286,26.075753 3.80952,8.10211 7.61904,14.25342 11.42857,16.25798 3.80952,2.00456 7.61904,-0.19994 11.42854,-5.8024 3.80953,-5.60247 7.61908,-14.50274 11.4286,-23.49347"
       id="path827-7"
       inkscape:connector-curvature="0" />
    <path
       inkscape:connector-curvature="0"
       id="path849-5"
       d="m 147.68495,105.69275 c 3.80952,-8.990703 7.61905,-17.884663 11.42857,-23.493433 3.8095,-5.60879 7.61905,-7.7991 11.42857,-5.8024 3.80953,1.99668 7.61905,8.15936 11.42857,16.25797 3.80953,8.098593 7.61905,17.973663 11.42857,26.075753 3.80953,8.10211 7.61905,14.25342 11.42858,16.25798 3.80952,2.00456 7.61904,-0.19994 11.42857,-5.8024 3.80952,-5.60247 7.61904,-14.50274 11.42857,-23.49347"
       style="fill:none;fill-opacity:1;stroke:#ffffff;stroke-width:0.70644099;stroke-miterlimit:4;stroke-dasharray:none;stroke-dashoffset:0;stroke-opacity:1;marker-start:none;marker-end:none" />
    <rect
       style="fill:#455f6e;fill-opacity:1;stroke:#455f6e;stroke-width:2.08320522;stroke-miterlimit:4;stroke-dasharray:none;stroke-dashoffset:0;stroke-opacity:1;marker-start:none;marker-end:none"
       id="rect861-3"
       width="319.66675"
       height="62.448856"
       x="274.99573"
       y="474.68304"
       ry="2.5715366e-07"
       transform="matrix(0.99999052,-0.00435408,-0.71883913,0.69517646,0,0)" />
    <path
       style="fill:none;stroke:#ff4051;stroke-width:0.75465488;stroke-linecap:butt;stroke-linejoin:miter;stroke-miterlimit:4;stroke-dasharray:none;stroke-opacity:1"
       d="m -87.58141,350.74456 319.7189,-1.39176"
       id="path865-5"
       inkscape:connector-curvature="0" />
    <path
       style="fill:none;stroke:#ffffff;stroke-width:1.01900005;stroke-linecap:butt;stroke-linejoin:miter;stroke-miterlimit:4;stroke-dasharray:none;stroke-opacity:1"
       d="M -93.19196,354.96958 -62.4944,324.53276"
       id="path880-6"
       inkscape:connector-curvature="0" />
    <path
       style="fill:none;stroke:#ffffff;stroke-width:0.96600002;stroke-linecap:butt;stroke-linejoin:miter;stroke-miterlimit:4;stroke-dasharray:none;stroke-opacity:1"
       d="m -62.4944,324.53276 50,-50"
       id="path893-9"
       inkscape:connector-curvature="0" />
    <path
       id="path929-1"
       style="fill:#0d6d7c;fill-opacity:0.63255819;stroke:#000000;stroke-width:0.37448436px;stroke-linecap:butt;stroke-linejoin:miter;stroke-opacity:1"
       d="m 174.62985,370.29359 v 90.14772 M 281.29652,340.24436 V 250.09664 M 174.62985,370.29359 281.29652,250.09664 M 173.92429,460.44131 280.59098,340.24436"
       inkscape:connector-curvature="0" />
    <path
       style="fill:#c6c6c6;fill-opacity:0.60784314;stroke:none;stroke-width:1.21204722;stroke-miterlimit:4;stroke-dasharray:none;stroke-dashoffset:0;stroke-opacity:1;marker-start:none;marker-end:none"
       d="m 174.1976,415.71379 v -44.54012 l 6.56556,-7.36287 6.56558,-7.36286 h 20.2011 c 12.94249,0 20.20112,-0.21357 20.20112,-0.59436 0,-0.37758 -7.12788,-0.65198 -19.54107,-0.75223 l -19.54109,-0.15788 46.30775,-52.05325 46.30777,-52.05325 v 44.53207 44.53202 l -53.53336,60.17644 -53.53336,60.17641 z"
       id="path940-2"
       inkscape:connector-curvature="0" />
    <path
       style="fill:none;stroke:#ffffff;stroke-width:1.50737309;stroke-linecap:butt;stroke-linejoin:miter;stroke-miterlimit:4;stroke-dasharray:4.52211927, 1.50737309999999991;stroke-dashoffset:0;stroke-opacity:1"
       d="M 174.62985,415.36748 281.29652,295.1705"
       id="path942-7"
       inkscape:connector-curvature="0" />
    <path
       style="fill:none;fill-opacity:1;stroke:#ffffff;stroke-width:0.60719711;stroke-miterlimit:4;stroke-dasharray:none;stroke-dashoffset:0;stroke-opacity:1;marker-start:none;marker-end:none"
       d="m -87.58141,350.74456 c 10.81903,-6.69496 21.562589,-13.31807 29.74365,-17.50092 8.1811,-4.18282 13.69573,-5.82639 15.94449,-4.3598 2.24872,1.46661 1.24795,6.02776 -1.26287,12.02692 -2.51079,5.99917 -6.40728,13.31794 -8.92082,19.31969 -2.51356,6.00176 -3.50547,10.55447 -1.26287,12.0269 2.24259,1.47244 7.76833,-0.18163 15.9445,-4.3598 8.17613,-4.17814 18.92461,-10.80595 29.7436496,-17.50094"
       id="path827-3"
       inkscape:connector-curvature="0" />
    <path
       inkscape:connector-curvature="0"
       id="path849-6"
       d="m -7.6516804,350.39661 c 10.81903,-6.69497 21.5625804,-13.31807 29.7436604,-17.5009 8.18108,-4.18285 13.69575,-5.82641 15.94447,-4.3598 2.24874,1.46659 1.24795,6.02774 -1.26285,12.0269 -2.51081,5.99919 -6.40729,13.31793 -8.92084,19.31969 -2.51355,6.00178 -3.50546,10.55447 -1.26285,12.02693 2.24259,1.47243 7.76831,-0.18167 15.94448,-4.35981 8.17614,-4.17814 18.92461,-10.80595 29.74366,-17.50094"
       style="fill:none;fill-opacity:1;stroke:#ffffff;stroke-width:0.60719711;stroke-miterlimit:4;stroke-dasharray:none;stroke-dashoffset:0;stroke-opacity:1;marker-start:none;marker-end:none" />
    <path
       style="fill:none;fill-opacity:1;stroke:#ffffff;stroke-width:0.60719711;stroke-miterlimit:4;stroke-dasharray:none;stroke-dashoffset:0;stroke-opacity:1;marker-start:none;marker-end:none"
       d="m 72.27805,350.04868 c 10.81903,-6.69497 21.56259,-13.31809 29.74363,-17.50092 8.18107,-4.18282 13.69573,-5.82639 15.9445,-4.3598 2.2487,1.46661 1.24796,6.02776 -1.26288,12.02692 -2.51079,5.99917 -6.40731,13.31791 -8.92082,19.31969 -2.51355,6.00176 -3.50547,10.5545 -1.26286,12.02693 2.24258,1.47243 7.7683,-0.18166 15.94445,-4.3598 8.17616,-4.17817 18.92464,-10.80598 29.74369,-17.50095"
       id="path827-7-0"
       inkscape:connector-curvature="0" />
    <path
       inkscape:connector-curvature="0"
       id="path849-5-6"
       d="m 152.20776,349.70075 c 10.81903,-6.69499 21.56259,-13.31809 29.74364,-17.50094 8.18108,-4.18283 13.69576,-5.82639 15.94451,-4.35978 2.24872,1.46659 1.24793,6.02774 -1.26286,12.0269 -2.51081,5.99919 -6.40731,13.31793 -8.92085,19.31972 -2.51354,6.00175 -3.50549,10.55446 -1.26288,12.0269 2.24261,1.47246 7.76832,-0.18164 15.94448,-4.35981 8.17618,-4.17814 18.92464,-10.80595 29.74369,-17.50094"
       style="fill:none;fill-opacity:1;stroke:#ffffff;stroke-width:0.60719711;stroke-miterlimit:4;stroke-dasharray:none;stroke-dashoffset:0;stroke-opacity:1;marker-start:none;marker-end:none" />
    <path
       style="fill:none;stroke:#ffffff;stroke-width:0.96499997;stroke-linecap:butt;stroke-linejoin:miter;stroke-miterlimit:4;stroke-dasharray:none;stroke-opacity:1"
       d="m -92.4944,354.53276 v -150.00001 0"
       id="path1078"
       inkscape:connector-curvature="0" />
    <path
       style="fill:none;stroke:#ffffff;stroke-width:0.96499997;stroke-linecap:butt;stroke-linejoin:miter;stroke-miterlimit:4;stroke-dasharray:none;stroke-opacity:1"
       d="m -92.4944,354.53276 -40,39.99997"
       id="path1080"
       inkscape:connector-curvature="0" />
    <path
       style="fill:none;stroke:#ffffff;stroke-width:0.96499997;stroke-linecap:butt;stroke-linejoin:miter;stroke-miterlimit:4;stroke-dasharray:none;stroke-opacity:1"
       d="m -132.4944,394.53273 -19.99999,20.00004 v 0 l -10.00001,9.99998"
       id="path1082"
       inkscape:connector-curvature="0" />
    <path
       style="fill:none;stroke:#ffffff;stroke-width:0.96499997;stroke-linecap:butt;stroke-linejoin:miter;stroke-miterlimit:4;stroke-dasharray:none;stroke-opacity:1"
       d="m -92.315052,105.69275 v -150.000003 0"
       id="path1078-2"
       inkscape:connector-curvature="0" />
    <path
       style="fill:none;stroke:#ffffff;stroke-width:0.96499997;stroke-linecap:butt;stroke-linejoin:miter;stroke-miterlimit:4;stroke-dasharray:none;stroke-opacity:1"
       d="m -92.315052,105.69275 -39.999998,39.99999"
       id="path1080-6"
       inkscape:connector-curvature="0" />
    <path
       style="fill:none;stroke:#ffffff;stroke-width:0.96499997;stroke-linecap:butt;stroke-linejoin:miter;stroke-miterlimit:4;stroke-dasharray:none;stroke-opacity:1"
       d="m -132.31505,145.69274 -19.99999,20.00002 v 0 l -10.00001,9.99999"
       id="path1082-1"
       inkscape:connector-curvature="0" />
    <path
       inkscape:connector-curvature="0"
       d="m 189.466,123.34629 0.30568,90.16965 M 269.41304,90.999606 269.10735,0.82996301 M 189.466,123.34629 269.10735,0.82996301 M 189.24217,213.53109 268.88355,91.014755"
       style="fill:#0d6d7c;fill-opacity:0.63255819;stroke:#000000;stroke-width:0.32446727px;stroke-linecap:butt;stroke-linejoin:miter;stroke-opacity:1"
       id="path877" />
    <path
       inkscape:connector-curvature="0"
       id="path879"
       d="m 190.46438,167.44376 -0.0839,-44.07588 4.84887,-7.4124 4.8489,-7.4124 14.96183,-0.3885 c 9.58581,-0.2489 14.96145,-0.59988 14.96073,-0.9767 -3.1e-4,-0.37365 -5.28043,-0.50809 -14.47441,-0.36856 l -14.47329,0.21966 34.19951,-52.401394 34.19954,-52.4013674 0.0839,44.0678964 0.0839,44.067887 -39.53582,60.578868 -39.53583,60.57883 z"
       style="fill:#c6c6c6;fill-opacity:0.60784314;stroke:none;stroke-width:1.03767145;stroke-miterlimit:4;stroke-dasharray:none;stroke-dashoffset:0;stroke-opacity:1;marker-start:none;marker-end:none" />
    <path
       inkscape:connector-curvature="0"
       id="path881"
       d="M 189.61885,168.43112 269.26019,45.914788"
       style="fill:none;stroke:#ffffff;stroke-width:1.30604458;stroke-linecap:butt;stroke-linejoin:miter;stroke-miterlimit:4;stroke-dasharray:3.91813372, 1.30604458;stroke-dashoffset:0;stroke-opacity:1" />
    <path
       inkscape:connector-curvature="0"
       id="path883"
       d="M 229.09363,106.44639 228.94079,61.361563"
       style="fill:none;stroke:#ff2626;stroke-width:0.3249782;stroke-linecap:butt;stroke-linejoin:miter;stroke-miterlimit:4;stroke-dasharray:none;stroke-opacity:1" />
    <path
       inkscape:connector-curvature="0"
       id="path885"
       d="m 229.09363,106.44639 0.15285,45.0848"
       style="fill:none;stroke:#ff2626;stroke-width:0.3249782;stroke-linecap:butt;stroke-linejoin:miter;stroke-miterlimit:4;stroke-dasharray:none;stroke-opacity:1" />
    <path
       style="fill:none;stroke:#ff2626;stroke-width:0.3249782;stroke-linecap:butt;stroke-linejoin:miter;stroke-miterlimit:4;stroke-dasharray:none;stroke-opacity:1"
       d="M 231.75444,350.44206 231.6016,305.35723"
       id="path910"
       inkscape:connector-curvature="0" />
    <path
       style="fill:none;stroke:#ff2626;stroke-width:0.3249782;stroke-linecap:butt;stroke-linejoin:miter;stroke-miterlimit:4;stroke-dasharray:none;stroke-opacity:1"
       d="m 231.75444,350.44206 0.15285,45.0848"
       id="path912"
       inkscape:connector-curvature="0" />
    <path
       style="fill:#c5c5c5;fill-opacity:0.60784316;stroke:#c5c5c5;stroke-width:0.91696995;stroke-miterlimit:4;stroke-dasharray:none;stroke-dashoffset:0;stroke-opacity:0.35294119;marker-start:none;marker-end:none"
       d="m 1330.9882,1514.3586 c 0.046,-0.13 0.5929,-1.3799 1.2152,-2.7775 l 1.1313,-2.5412 13.5764,0.1459 c 7.467,0.08 26.7568,0.255 42.8662,0.3883 29.8436,0.247 56.4405,0.6659 60.968,0.9604 l 2.5141,0.1635 -2.8912,1.7599 -2.8913,1.7599 -11.5651,0.1588 c -19.042,0.2614 -105.0175,0.2467 -104.9236,-0.018 z"
       id="path914"
       inkscape:connector-curvature="0"
       transform="matrix(0.26458333,0,0,0.26458333,-162.83558,-44.307253)" />
    <path
       style="fill:#c5c5c5;fill-opacity:0.60784316;stroke:#c5c5c5;stroke-width:0.91696995;stroke-miterlimit:4;stroke-dasharray:none;stroke-dashoffset:0;stroke-opacity:0.60784316;marker-start:none;marker-end:none"
       d="m 1322.1765,1515.7077 c 0.1439,-0.4049 6.6149,-7.6255 6.7304,-7.51 0.055,0.055 -0.043,0.2722 -0.2183,0.4829 -0.2762,0.3328 -0.1817,0.3832 0.7184,0.3832 0.5701,0 1.0365,0.069 1.0365,0.1528 0,0.084 -0.5278,1.3285 -1.1729,2.7655 l -1.1729,2.6129 h -2.2703 c -2.1301,0 -2.3159,0.043 -3.0086,0.6913 -0.406,0.3803 -0.695,0.5699 -0.6423,0.4214 z"
       id="path916"
       inkscape:connector-curvature="0"
       transform="matrix(0.26458333,0,0,0.26458333,-162.83558,-44.307253)" />
    <path
       style="fill:#455f6e;fill-opacity:1;stroke:#ffffff;stroke-width:0.91696995;stroke-miterlimit:4;stroke-dasharray:none;stroke-dashoffset:0;stroke-opacity:1;marker-start:none;marker-end:none"
       d="m 1459.7368,1513.9117 c 0.3822,-0.058 0.9479,-0.056 1.2571,0 0.3092,0.06 0,0.107 -0.6949,0.1051 -0.6914,0 -0.9444,-0.051 -0.5622,-0.1085 z"
       id="path918"
       inkscape:connector-curvature="0"
       transform="matrix(0.26458333,0,0,0.26458333,-162.83558,-44.307253)" />
    <path
       style="fill:#c5c5c5;fill-opacity:0.90196079;stroke:#c5c5c5;stroke-width:0.91696995;stroke-miterlimit:4;stroke-dasharray:none;stroke-dashoffset:0;stroke-opacity:1;marker-start:none;marker-end:none"
       d="m 1346.7714,613.52133 -0.5461,-1.12406 14.2043,-21.85435 14.2043,-21.85434 1.426,-0.0758 1.426,-0.0758 -1.138,1.6964 c -0.6259,0.93301 -1.0998,1.73463 -1.053,1.78136 0.047,0.0467 11.4419,-0.10627 25.3226,-0.33999 24.5399,-0.41321 71.429,-0.62374 71.7314,-0.32207 0.083,0.0824 -0.1287,0.78075 -0.4697,1.55177 l -0.62,1.40186 -1.3317,0.14318 c -5.3304,0.57307 -25.0497,1.25953 -69.4476,2.41758 -15.8924,0.41452 -28.9179,0.78041 -28.9456,0.81307 -0.028,0.0327 -5.2276,7.97895 -11.5552,17.65841 -6.3276,9.67946 -11.765,17.98329 -12.0832,18.45295 l -0.5784,0.85393 z"
       id="path920"
       inkscape:connector-curvature="0"
       transform="matrix(0.26458333,0,0,0.26458333,-162.83558,-44.307253)" />
    <path
       style="fill:#c5c5c5;fill-opacity:0.60784314;stroke:#c5c5c5;stroke-width:0.91696995;stroke-miterlimit:4;stroke-dasharray:none;stroke-dashoffset:0;stroke-opacity:0.35294118;marker-start:none;marker-end:none"
       d="m 1481.5976,406.52623 0.072,-2.51414 65.7151,-101.06863 c 36.1433,-55.58774 65.7432,-101.10214 65.7775,-101.1431 0.034,-0.041 0.862,-0.041 1.8395,0 l 1.7772,0.0745 -66.3706,101.69716 c -36.5038,55.93344 -66.9356,102.54568 -67.6263,103.58277 l -1.2557,1.88561 z"
       id="path922"
       inkscape:connector-curvature="0"
       transform="matrix(0.26458333,0,0,0.26458333,-162.83558,-44.307253)" />
    <path
       style="fill:#c5c5c5;fill-opacity:0.60784314;stroke:#c5c5c5;stroke-width:0.91696995;stroke-miterlimit:4;stroke-dasharray:none;stroke-dashoffset:0;stroke-opacity:0.35294118;marker-start:none;marker-end:none"
       d="m 1452.3795,449.2671 c 0,-0.0689 6.1942,-9.65592 13.7649,-21.30445 l 13.765,-21.17915 0.072,2.29043 0.072,2.29044 -12.3912,19.00819 -12.3912,19.00819 -1.4456,0.006 c -0.7951,0.003 -1.4456,-0.0506 -1.4456,-0.11948 z"
       id="path924"
       inkscape:connector-curvature="0"
       transform="matrix(0.26458333,0,0,0.26458333,-162.83558,-44.307253)" />
    <path
       style="fill:#c5c5c5;fill-opacity:0.60784314;stroke:#c5c5c5;stroke-width:0.91696995;stroke-miterlimit:4;stroke-dasharray:none;stroke-dashoffset:0;stroke-opacity:0.35294118;marker-start:none;marker-end:none"
       d="m 1377.3958,564.47738 c 0.5154,-0.85897 74.5045,-114.6937 74.5692,-114.72727 0.021,-0.0107 0.6678,0.0459 1.4383,0.1257 l 1.401,0.14513 -37.6047,57.63256 -37.6046,57.63255 -1.3448,0.004 -1.3447,0.004 z"
       id="path926"
       inkscape:connector-curvature="0"
       transform="matrix(0.26458333,0,0,0.26458333,-162.83558,-44.307253)" />
  </g>
</svg>
