<?xml version="1.0" encoding="UTF-8" standalone="no"?>
<!-- Created with Inkscape (http://www.inkscape.org/) -->

<svg
   xmlns:dc="http://purl.org/dc/elements/1.1/"
   xmlns:cc="http://creativecommons.org/ns#"
   xmlns:rdf="http://www.w3.org/1999/02/22-rdf-syntax-ns#"
   xmlns:svg="http://www.w3.org/2000/svg"
   xmlns="http://www.w3.org/2000/svg"
   xmlns:sodipodi="http://sodipodi.sourceforge.net/DTD/sodipodi-0.dtd"
   xmlns:inkscape="http://www.inkscape.org/namespaces/inkscape"
   version="1.1"
   id="svg2"
   xml:space="preserve"
   width="802.50507"
   height="1130.9784"
   viewBox="0 0 802.50507 1130.9784"
   sodipodi:docname="frontmatter.svg"
   inkscape:version="0.92.5 (2060ec1f9f, 2020-04-08)"><metadata
     id="metadata8"><rdf:RDF><cc:Work
         rdf:about=""><dc:format>image/svg+xml</dc:format><dc:type
           rdf:resource="http://purl.org/dc/dcmitype/StillImage" /><dc:title></dc:title></cc:Work></rdf:RDF></metadata><defs
     id="defs6" /><sodipodi:namedview
     pagecolor="#ffffff"
     bordercolor="#666666"
     borderopacity="1"
     objecttolerance="10"
     gridtolerance="10"
     guidetolerance="10"
     inkscape:pageopacity="0"
     inkscape:pageshadow="2"
     inkscape:window-width="1878"
     inkscape:window-height="968"
     id="namedview4"
     showgrid="false"
     inkscape:zoom="0.83467554"
     inkscape:cx="-10.883661"
     inkscape:cy="758.37852"
     inkscape:window-x="20"
     inkscape:window-y="50"
     inkscape:window-maximized="0"
     inkscape:current-layer="g10" /><g
     id="g10"
     inkscape:groupmode="layer"
     inkscape:label="frontmatter"
     transform="matrix(1.3333333,0,0,1.3333333,0,-6.3922059e-6)"><g
       id="g12"><path
         d="m 3.172,1.793 h 596 v 842 h -596 z"
         style="fill:#313847;fill-opacity:1;fill-rule:nonzero;stroke:none"
         id="path14"
         inkscape:connector-curvature="0" /><g
         id="g16"><path
           d="M 1.793,1.793 H 600.086 V 846.441 H 1.793 Z"
           style="fill:none;stroke:#ffffff;stroke-width:3.58582711;stroke-linecap:butt;stroke-linejoin:miter;stroke-miterlimit:4;stroke-dasharray:none;stroke-opacity:1"
           id="path18"
           inkscape:connector-curvature="0" /></g><text
         transform="matrix(0.8166231,0,0,1,44.556944,79.423852)"
         style="font-variant:normal;font-size:30.98469353px;font-family:'Asana Math';-inkscape-font-specification:Asana-Math;writing-mode:lr-tb;fill:#ffffff;fill-opacity:1;fill-rule:nonzero;stroke:none"
         id="text24"><tspan
           x="0 18.900663 36.097168 49.203693 67.79451 82.605194 94.813164 103.79872 131.12723 145.9379 163.94002 174.01004 189.47141 198.45695 206.17215 223.36865 240.56516 253.67168 262.65726 279.85376 287.56894 303.0303 310.74548 321.03241 328.74759 354.52686 372.00223 386.8129 395.79846 408.905 423.71567 431.43088"
           y="0"
           sodipodi:role="line"
           id="tspan20">Eksperimental Fysik 2 - Øvelse 2</tspan><tspan
           x="0 18.962631 36.964737 51.775421 59.490612 88.771149 97.756706 111.48293 129.48503 144.29572 153.28128 166.3878 183.27446 201.27657 211.56348 240.84402 257.73068 269.93866 278.92419 293.73489 310.9314 318.64658 329.05743 347.05954 357.12958 371.94025 384.14822 394.43515 409.24582 421.4538 438.34045 465.66895 480.47964 490.54965 505.36035"
           y="38.730865"
           sodipodi:role="line"
           id="tspan22">The Michelson-Morley Interferometer</tspan></text>
<text
         transform="matrix(0.95247104,0,0,1,43.85067,167.83296)"
         style="font-variant:normal;font-size:18.44363976px;font-family:'Asana Math';-inkscape-font-specification:Asana-Math;writing-mode:lr-tb;fill:#ffffff;fill-opacity:1;fill-rule:nonzero;stroke:none"
         id="text30"><tspan
           x="0 11.287507 16.636162 27.351917 38.454987 46.256645 50.849113 62.099731 67.448387 81.410225 89.211884 99.392769 103.69014 112.5062 119.77299"
           y="0"
           sodipodi:role="line"
           id="tspan26">Tinus Blæsbjerg</tspan><tspan
           x="0 14.330708 19.679363 29.860252 38.676311 45.943104 51.937286 56.529755 67.780373 78.883446 89.599197 100.84982"
           y="23.054548"
           sodipodi:role="line"
           id="tspan28">Albert Lunde</tspan></text>
<path
         d="m 447.004,814.688 c -1.715,-0.438 -2.887,-1.633 -3.348,-3.415 -0.172,-0.656 -0.203,-1.617 -0.203,-5.773 v -4.988 l 0.602,0.047 0.601,0.043 0.067,5.152 c 0.062,5.137 0.062,5.152 0.379,5.859 0.679,1.524 2.296,2.207 3.972,1.672 0.633,-0.199 1.383,-0.984 1.754,-1.844 0.293,-0.671 0.301,-0.769 0.34,-5.804 l 0.039,-5.121 0.57,0.043 0.567,0.043 -0.008,5.214 -0.012,5.211 -0.332,0.844 c -0.34,0.867 -1.203,1.93 -1.906,2.344 -0.379,0.226 -1.953,0.691 -2.234,0.664 -0.086,-0.008 -0.465,-0.094 -0.852,-0.191 z m 10.172,-0.079 c -1.336,-0.433 -2.278,-1.543 -2.633,-3.097 -0.105,-0.461 -0.164,-0.883 -0.133,-0.942 0.031,-0.058 0.313,-0.082 0.629,-0.054 0.555,0.05 0.574,0.07 0.656,0.613 0.196,1.324 1.317,2.312 2.617,2.312 1.258,0 2.204,-0.832 2.532,-2.226 0.308,-1.313 -0.375,-2.371 -2.032,-3.149 -2.179,-1.023 -2.687,-1.343 -3.238,-2.043 -0.301,-0.382 -0.582,-0.902 -0.625,-1.152 -0.484,-2.762 1.203,-4.848 3.699,-4.582 1.372,0.145 2.512,1.16 2.805,2.5 0.254,1.156 0.223,1.246 -0.457,1.195 -0.586,-0.043 -0.601,-0.058 -0.703,-0.621 -0.254,-1.418 -1.789,-2.226 -3.059,-1.617 -0.824,0.395 -1.332,1.59 -1.093,2.582 0.207,0.844 0.761,1.317 2.601,2.219 2.098,1.023 2.59,1.418 3.024,2.414 0.781,1.797 0.179,4.109 -1.356,5.191 -0.367,0.258 -1.918,0.758 -2.281,0.731 -0.086,-0.004 -0.512,-0.129 -0.953,-0.274 z m 14.66,0.059 c -1.289,-0.359 -2.035,-0.918 -2.703,-2.027 -0.762,-1.262 -0.813,-1.735 -0.817,-7.215 v -4.899 h 1.266 v 4.836 c 0,5.719 0.043,6.008 1.02,7.09 0.691,0.766 1.218,0.988 2.343,0.985 1.246,-0.004 2.16,-0.633 2.75,-1.899 0.289,-0.625 0.297,-0.707 0.332,-5.832 l 0.039,-5.191 0.598,0.043 0.594,0.043 v 10.445 l -0.328,0.801 c -0.629,1.527 -1.45,2.285 -3.016,2.781 -0.969,0.309 -1.102,0.309 -2.078,0.039 z m 14.301,-4.434 c -1.953,-2.558 -3.809,-5.004 -4.121,-5.429 -0.313,-0.43 -0.641,-0.782 -0.731,-0.785 -0.125,-0.004 -0.156,1.128 -0.156,5.222 v 5.231 l -0.606,-0.043 -0.601,-0.043 -0.031,-7.086 c -0.02,-3.949 0.011,-7.067 0.074,-7.039 0.101,0.043 3.473,4.429 6.996,9.093 0.734,0.973 1.375,1.766 1.43,1.766 0.05,0 0.093,-2.383 0.093,-5.297 v -5.297 h 1.27 v 7.184 c 0,3.949 -0.016,7.184 -0.031,7.184 -0.02,0 -1.633,-2.098 -3.586,-4.661 z m 14.617,4.477 c -0.227,-0.637 -3.34,-9.004 -3.578,-9.602 -0.246,-0.625 -0.828,-2.168 -1.543,-4.109 l -0.176,-0.473 h 1.348 l 1.859,5.043 c 1.024,2.774 1.918,5.223 1.988,5.442 0.075,0.218 0.18,0.398 0.239,0.398 0.058,0 0.527,-1.222 1.035,-2.719 0.512,-1.496 1.347,-3.929 1.851,-5.406 l 0.922,-2.683 0.664,-0.043 c 0.59,-0.043 0.653,-0.02 0.575,0.214 -0.918,2.762 -4.961,14.122 -5.028,14.122 -0.051,0 -0.121,-0.083 -0.156,-0.184 z m 29.656,0.109 c -0.07,-0.027 -0.445,-0.152 -0.836,-0.277 -1.265,-0.402 -2.359,-1.832 -2.586,-3.387 l -0.09,-0.617 h 0.645 c 0.586,0 0.648,0.031 0.648,0.328 0.008,0.528 0.438,1.469 0.864,1.879 0.543,0.52 1.195,0.742 1.972,0.668 0.895,-0.09 1.563,-0.488 1.961,-1.18 0.282,-0.488 0.34,-0.746 0.34,-1.562 0,-0.844 -0.047,-1.031 -0.316,-1.371 -0.481,-0.59 -1.09,-0.992 -2.547,-1.668 -2.344,-1.09 -3.035,-1.945 -3.035,-3.742 0,-2.266 1.601,-3.829 3.703,-3.61 0.722,0.074 1.578,0.473 2.047,0.949 0.41,0.418 0.84,1.399 0.925,2.102 l 0.083,0.68 h -0.653 c -0.633,0 -0.652,-0.016 -0.652,-0.414 0,-0.485 -0.422,-1.246 -0.93,-1.676 -0.508,-0.434 -1.941,-0.434 -2.453,-0.008 -0.531,0.441 -0.957,1.469 -0.887,2.125 0.121,1.117 0.59,1.512 3.446,2.887 1.285,0.621 2.25,1.633 2.476,2.597 0.403,1.727 -0.238,3.629 -1.547,4.582 -0.609,0.446 -2.168,0.879 -2.578,0.715 z m -133.777,-0.679 c 0.109,-0.332 1.359,-3.575 2.027,-5.27 0.188,-0.476 1.028,-2.648 1.86,-4.82 0.832,-2.172 1.554,-3.949 1.605,-3.953 0.051,-0.004 0.23,0.34 0.398,0.757 0.168,0.418 1.219,2.981 2.336,5.696 2.688,6.531 3.2,7.797 3.2,7.855 0,0.028 -0.286,0.051 -0.637,0.051 h -0.637 l -0.543,-1.34 c -0.301,-0.738 -0.625,-1.555 -0.726,-1.816 l -0.18,-0.469 h -6.168 l -0.121,0.398 c -0.07,0.219 -0.367,1.02 -0.664,1.778 l -0.539,1.379 -0.664,0.043 c -0.645,0.043 -0.66,0.035 -0.547,-0.289 z m 8.004,-4.805 c 0,-0.106 -0.11,-0.449 -0.242,-0.762 -0.133,-0.316 -0.411,-0.996 -0.622,-1.515 -1.207,-2.997 -1.543,-3.774 -1.636,-3.774 -0.055,0 -0.227,0.344 -0.379,0.762 -0.153,0.418 -0.653,1.734 -1.11,2.922 -0.46,1.187 -0.832,2.25 -0.832,2.359 0,0.16 0.457,0.195 2.411,0.195 1.902,0 2.41,-0.039 2.41,-0.187 z m 3.804,4.992 c 0,-0.238 5.434,-14.152 5.539,-14.187 0.059,-0.016 0.375,0.632 0.708,1.449 0.332,0.812 1.121,2.75 1.757,4.308 0.637,1.555 1.317,3.219 1.512,3.7 0.191,0.48 0.699,1.711 1.125,2.738 0.426,1.027 0.777,1.926 0.777,1.996 0,0.07 -0.277,0.125 -0.613,0.125 h -0.613 l -1.477,-3.625 h -6.136 l -0.665,1.813 -0.667,1.812 h -0.622 c -0.343,0 -0.625,-0.055 -0.625,-0.129 z m 8.032,-4.91 c 0.031,-0.063 -0.368,-1.156 -0.883,-2.434 -0.516,-1.277 -1.059,-2.632 -1.207,-3.015 -0.149,-0.383 -0.324,-0.672 -0.395,-0.645 -0.168,0.063 -2.386,5.922 -2.3,6.078 0.082,0.153 4.707,0.164 4.785,0.016 z m 4.906,-1.934 v -6.972 l 2.699,0.047 2.699,0.043 0.852,0.48 c 1.566,0.883 2.223,2.703 1.695,4.703 -0.332,1.258 -1.047,2.031 -2.39,2.582 -0.368,0.153 -0.661,0.332 -0.645,0.399 0.012,0.07 0.715,1.289 1.563,2.711 0.847,1.421 1.57,2.671 1.605,2.781 0.055,0.156 -0.09,0.199 -0.629,0.199 h -0.699 l -1.567,-2.641 c -0.863,-1.449 -1.64,-2.793 -1.734,-2.98 -0.152,-0.316 -0.23,-0.336 -1.14,-0.297 l -0.977,0.043 -0.035,2.938 -0.031,2.937 h -1.266 z m 5.523,-0.554 c 1.825,-0.946 1.774,-4.016 -0.082,-4.832 -0.425,-0.188 -0.98,-0.25 -2.363,-0.254 l -1.809,-0.008 v 5.367 l 1.872,-0.008 c 1.539,0 1.96,-0.047 2.382,-0.269 z m 4.879,0.562 v -6.965 h 1.27 v 5.95 h 6.597 v -5.95 h 1.141 v 13.93 h -1.141 v -3.172 c 0,-2.515 -0.039,-3.211 -0.175,-3.34 -0.121,-0.117 -1.094,-0.156 -3.266,-0.129 l -3.094,0.039 -0.035,3.301 -0.031,3.301 h -1.266 z m 60.762,0 v -6.98 l 0.605,0.047 0.602,0.043 v 13.785 l -0.602,0.043 -0.605,0.043 z m 15.098,0 v -6.965 h 7.23 v 1.309 h -5.965 v 4.637 l 2.699,0.039 2.696,0.039 v 1.261 l -2.664,0.024 -2.664,0.019 -0.071,5.297 h 5.969 v 1.305 h -7.23 z m 9.511,-0.008 v -6.972 l 2.7,0.043 2.699,0.047 0.828,0.464 c 2.582,1.457 2.539,5.582 -0.07,7.004 -0.442,0.242 -0.922,0.438 -1.067,0.438 -0.367,0 -0.344,0.121 0.211,1.027 1.156,1.887 2.82,4.735 2.82,4.824 0,0.055 -0.312,0.098 -0.691,0.098 h -0.687 l -1.047,-1.777 c -0.578,-0.977 -1.368,-2.317 -1.754,-2.977 l -0.707,-1.195 -0.949,0.035 -0.954,0.039 -0.035,2.938 -0.031,2.937 h -1.266 z m 5.52,-0.554 c 0.914,-0.485 1.332,-1.246 1.332,-2.426 0,-0.781 -0.371,-1.668 -0.856,-2.055 -0.628,-0.504 -1.171,-0.613 -2.968,-0.613 h -1.758 v 5.367 l 1.871,-0.004 c 1.547,-0.004 1.957,-0.051 2.379,-0.273 z m 14.144,0.562 v -6.965 h 1.266 v 13.93 h -1.266 z m 6.567,0.692 -0.035,-6.278 -1.809,-0.039 -1.805,-0.039 v -1.301 h 8.371 v 1.297 l -1.746,0.043 -1.742,0.039 -0.035,6.278 -0.031,6.273 h -1.137 z m 9.414,3.121 v -3.153 l -0.699,-1.308 c -0.387,-0.719 -1.332,-2.418 -2.094,-3.778 l -1.391,-2.464 0.586,-0.047 c 0.324,-0.024 0.656,-0.012 0.742,0.023 0.086,0.039 0.864,1.379 1.727,2.984 0.867,1.602 1.633,2.911 1.703,2.911 0.067,0 0.844,-1.321 1.723,-2.938 l 1.597,-2.933 0.719,-0.043 c 0.395,-0.024 0.715,-0.012 0.715,0.031 0,0.074 -0.645,1.226 -3.473,6.199 l -0.711,1.258 v 6.41 h -1.144 z M 397.406,797.961 c 0,-0.055 7.992,-9.231 17.766,-20.387 l 17.766,-20.285 h 2.523 v 12.504 l -12.399,14.129 -12.402,14.129 -6.629,0.004 c -3.644,0.007 -6.625,-0.039 -6.625,-0.094 z m 54.735,-0.117 c -8.641,-1.383 -15.395,-9.231 -16.426,-19.078 -0.07,-0.676 -0.129,-1.508 -0.129,-1.848 v -0.621 h 9.516 v 0.629 c 0,1.031 0.46,2.836 1.097,4.285 0.989,2.254 2.863,4.211 4.969,5.184 2.332,1.078 4.922,1.035 7.309,-0.122 3.214,-1.554 5.671,-5.496 5.796,-9.304 l 0.024,-0.672 h 9.512 l -0.082,1.523 c -0.223,4.203 -1.7,8.59 -4.004,11.899 -0.864,1.238 -2.668,3.191 -3.828,4.144 -1.903,1.563 -4.665,3.035 -6.778,3.617 -2.07,0.567 -4.808,0.711 -6.976,0.364 z"
         style="fill:#ffffff;fill-opacity:1;fill-rule:nonzero;stroke:none"
         id="path32"
         inkscape:connector-curvature="0" /><g
         id="g34"><path
           d="M 45.266,139.117 H 426.188"
           style="fill:none;stroke:#ffffff;stroke-width:0.75;stroke-linecap:butt;stroke-linejoin:miter;stroke-miterlimit:4;stroke-dasharray:none;stroke-opacity:1"
           id="path36"
           inkscape:connector-curvature="0" /></g><g
         id="g38"><path
           d="M 45.266,211.574 H 169.48"
           style="fill:none;stroke:#ffffff;stroke-width:0.75;stroke-linecap:butt;stroke-linejoin:miter;stroke-miterlimit:4;stroke-dasharray:none;stroke-opacity:1"
           id="path40"
           inkscape:connector-curvature="0" /></g></g><rect
       style="fill:#313847;stroke:none;stroke-width:1.31811023;stroke-miterlimit:4;stroke-dasharray:none;stroke-opacity:1;fill-opacity:1"
       id="rect847"
       width="437.59518"
       height="86.261063"
       x="35.043556"
       y="43.130535" /><text
       xml:space="preserve"
       style="font-style:normal;font-variant:normal;font-weight:normal;font-stretch:normal;font-size:30px;line-height:1.25;font-family:'Asana Math';-inkscape-font-specification:'Asana Math';letter-spacing:0px;word-spacing:0px;fill:#ffffff;fill-opacity:1;stroke:#ffffff;stroke-width:0.75;stroke-opacity:1"
       x="37.739216"
       y="88.956726"
       id="text851"><tspan
         sodipodi:role="line"
         id="tspan849"
         x="37.739216"
         y="88.956726"
         style="font-style:normal;font-variant:normal;font-weight:normal;font-stretch:normal;font-family:'Asana Math';-inkscape-font-specification:'Asana Math';fill:#ffffff;fill-opacity:1;stroke:#ffffff;stroke-width:0.75;stroke-opacity:1">Eksperimental Fysik 2 - Øvelse 3</tspan></text>
</g></svg>