<?xml version="1.0" encoding="UTF-8" standalone="no"?>
<!-- Created with Inkscape (http://www.inkscape.org/) -->

<svg
   xmlns:dc="http://purl.org/dc/elements/1.1/"
   xmlns:cc="http://creativecommons.org/ns#"
   xmlns:rdf="http://www.w3.org/1999/02/22-rdf-syntax-ns#"
   xmlns:svg="http://www.w3.org/2000/svg"
   xmlns="http://www.w3.org/2000/svg"
   xmlns:sodipodi="http://sodipodi.sourceforge.net/DTD/sodipodi-0.dtd"
   xmlns:inkscape="http://www.inkscape.org/namespaces/inkscape"
   width="80.42128mm"
   height="80.42128mm"
   viewBox="0 0 80.42128 80.42128"
   version="1.1"
   id="svg8"
   inkscape:version="0.92.5 (2060ec1f9f, 2020-04-08)"
   sodipodi:docname="opgave1.svg">
  <defs
     id="defs2">
    <marker
       inkscape:stockid="Arrow2Mend"
       orient="auto"
       refY="0"
       refX="0"
       id="marker961"
       style="overflow:visible"
       inkscape:isstock="true">
      <path
         id="path959"
         style="fill:#000000;fill-opacity:1;fill-rule:evenodd;stroke:#000000;stroke-width:0.625;stroke-linejoin:round;stroke-opacity:1"
         d="M 8.7185878,4.0337352 -2.2072895,0.01601326 8.7185884,-4.0017078 c -1.7454984,2.3720609 -1.7354408,5.6174519 -6e-7,8.035443 z"
         transform="scale(-0.6)"
         inkscape:connector-curvature="0" />
    </marker>
    <marker
       inkscape:isstock="true"
       style="overflow:visible"
       id="marker921"
       refX="0"
       refY="0"
       orient="auto"
       inkscape:stockid="Arrow2Mstart">
      <path
         transform="scale(0.6)"
         d="M 8.7185878,4.0337352 -2.2072895,0.01601326 8.7185884,-4.0017078 c -1.7454984,2.3720609 -1.7354408,5.6174519 -6e-7,8.035443 z"
         style="fill:#000000;fill-opacity:1;fill-rule:evenodd;stroke:#000000;stroke-width:0.625;stroke-linejoin:round;stroke-opacity:1"
         id="path919"
         inkscape:connector-curvature="0" />
    </marker>
    <marker
       inkscape:stockid="Arrow2Mstart"
       orient="auto"
       refY="0"
       refX="0"
       id="Arrow2Mstart"
       style="overflow:visible"
       inkscape:isstock="true"
       inkscape:collect="always">
      <path
         inkscape:connector-curvature="0"
         id="path994"
         style="fill:#000000;fill-opacity:1;fill-rule:evenodd;stroke:#000000;stroke-width:0.625;stroke-linejoin:round;stroke-opacity:1"
         d="M 8.7185878,4.0337352 -2.2072895,0.01601326 8.7185884,-4.0017078 c -1.7454984,2.3720609 -1.7354408,5.6174519 -6e-7,8.035443 z"
         transform="scale(0.6)" />
    </marker>
    <marker
       inkscape:isstock="true"
       style="overflow:visible"
       id="marker1331"
       refX="0"
       refY="0"
       orient="auto"
       inkscape:stockid="Arrow2Mend"
       inkscape:collect="always">
      <path
         inkscape:connector-curvature="0"
         transform="scale(-0.6)"
         d="M 8.7185878,4.0337352 -2.2072895,0.01601326 8.7185884,-4.0017078 c -1.7454984,2.3720609 -1.7354408,5.6174519 -6e-7,8.035443 z"
         style="fill:#000000;fill-opacity:1;fill-rule:evenodd;stroke:#000000;stroke-width:0.625;stroke-linejoin:round;stroke-opacity:1"
         id="path1329" />
    </marker>
    <marker
       inkscape:stockid="Arrow2Mstart"
       orient="auto"
       refY="0"
       refX="0"
       id="Arrow2Mstart-3"
       style="overflow:visible"
       inkscape:isstock="true">
      <path
         inkscape:connector-curvature="0"
         id="path994-6"
         style="fill:#000000;fill-opacity:1;fill-rule:evenodd;stroke:#000000;stroke-width:0.625;stroke-linejoin:round;stroke-opacity:1"
         d="M 8.7185878,4.0337352 -2.2072895,0.01601326 8.7185884,-4.0017078 c -1.7454984,2.3720609 -1.7354408,5.6174519 -6e-7,8.035443 z"
         transform="scale(0.6)" />
    </marker>
    <marker
       inkscape:isstock="true"
       style="overflow:visible"
       id="marker1331-7"
       refX="0"
       refY="0"
       orient="auto"
       inkscape:stockid="Arrow2Mend">
      <path
         inkscape:connector-curvature="0"
         transform="scale(-0.6)"
         d="M 8.7185878,4.0337352 -2.2072895,0.01601326 8.7185884,-4.0017078 c -1.7454984,2.3720609 -1.7354408,5.6174519 -6e-7,8.035443 z"
         style="fill:#000000;fill-opacity:1;fill-rule:evenodd;stroke:#000000;stroke-width:0.625;stroke-linejoin:round;stroke-opacity:1"
         id="path1329-5" />
    </marker>
  </defs>
  <sodipodi:namedview
     id="base"
     pagecolor="#ffffff"
     bordercolor="#666666"
     borderopacity="1.0"
     inkscape:pageopacity="0.0"
     inkscape:pageshadow="2"
     inkscape:zoom="5.39439"
     inkscape:cx="189.77251"
     inkscape:cy="43.618505"
     inkscape:document-units="mm"
     inkscape:current-layer="layer1"
     showgrid="true"
     showborder="true"
     width="200mm"
     showguides="true"
     inkscape:guide-bbox="true"
     inkscape:window-width="4038"
     inkscape:window-height="2136"
     inkscape:window-x="2589"
     inkscape:window-y="84"
     inkscape:window-maximized="0"
     inkscape:snap-object-midpoints="false"
     inkscape:snap-smooth-nodes="true"
     inkscape:snap-grids="false">
    <inkscape:grid
       type="xygrid"
       id="grid815"
       units="mm"
       spacingx="10"
       spacingy="10"
       empspacing="4"
       dotted="false"
       originx="-69.78936"
       originy="-29.789551" />
  </sodipodi:namedview>
  <metadata
     id="metadata5">
    <rdf:RDF>
      <cc:Work
         rdf:about="">
        <dc:format>image/svg+xml</dc:format>
        <dc:type
           rdf:resource="http://purl.org/dc/dcmitype/StillImage" />
        <dc:title />
      </cc:Work>
    </rdf:RDF>
  </metadata>
  <g
     inkscape:label="Layer 1"
     inkscape:groupmode="layer"
     id="layer1"
     transform="translate(-69.789358,-186.78917)">
    <path
       style="opacity:1;vector-effect:none;fill:#1c00c7;fill-opacity:0.38823529;fill-rule:evenodd;stroke:#1c00c7;stroke-width:0.421;stroke-linecap:butt;stroke-linejoin:miter;stroke-miterlimit:4;stroke-dasharray:none;stroke-dashoffset:0;stroke-opacity:1;marker-start:none;marker-end:none;paint-order:stroke fill markers"
       d="M 110,186.99967 A 39.999999,39.999999 0 0 0 69.999858,226.99981 39.999999,39.999999 0 0 0 110,266.99995 39.999999,39.999999 0 0 0 150.00014,226.99981 39.999999,39.999999 0 0 0 110,186.99967 Z M 110,207 a 20,20 0 0 1 1.99678,0.0997 20,20 0 0 1 1.97662,0.2987 20,20 0 0 1 1.93683,0.49454 20,20 0 0 1 1.87792,0.68575 20,20 0 0 1 1.80041,0.86971 20,20 0 0 1 1.70429,1.0449 20,20 0 0 1 1.59163,1.20974 20,20 0 0 1 1.46245,1.36271 20,20 0 0 1 1.31981,1.50172 20,20 0 0 1 1.16272,1.62625 20,20 0 0 1 0.99477,1.73427 20,20 0 0 1 0.81649,1.82469 20,20 0 0 1 0.63045,1.89704 20,20 0 0 1 0.4377,1.95079 20,20 0 0 1 0.24082,1.98437 20,20 0 0 1 0.0501,1.4149 20,20 0 0 1 -0.0997,1.99678 20,20 0 0 1 -0.29869,1.97662 20,20 0 0 1 -0.49455,1.93684 20,20 0 0 1 -0.68574,1.87792 20,20 0 0 1 -0.86972,1.8004 20,20 0 0 1 -1.04489,1.70429 20,20 0 0 1 -1.20975,1.59164 20,20 0 0 1 -1.36271,1.46244 20,20 0 0 1 -1.50171,1.31982 20,20 0 0 1 -1.62626,1.16272 20,20 0 0 1 -1.73426,0.99477 20,20 0 0 1 -1.8247,0.81649 20,20 0 0 1 -1.89704,0.63045 20,20 0 0 1 -1.95079,0.4377 20,20 0 0 1 -1.98437,0.24081 20,20 0 0 1 -1.4149,0.0501 20,20 0 0 1 -1.99678,-0.0997 20,20 0 0 1 -1.97662,-0.29869 20,20 0 0 1 -1.93683,-0.49454 20,20 0 0 1 -1.87793,-0.68575 20,20 0 0 1 -1.8004,-0.8692 20,20 0 0 1 -1.70429,-1.04489 20,20 0 0 1 -1.591636,-1.21027 20,20 0 0 1 -1.462442,-1.3627 20,20 0 0 1 -1.319816,-1.50172 20,20 0 0 1 -1.162722,-1.62626 20,20 0 0 1 -0.994769,-1.73426 20,20 0 0 1 -0.816489,-1.82469 20,20 0 0 1 -0.630452,-1.89705 20,20 0 0 1 -0.4377,-1.95078 20,20 0 0 1 -0.24081,-1.98438 20,20 0 0 1 -0.05013,-1.4149 20,20 0 0 1 0.09974,-1.99677 20,20 0 0 1 0.298688,-1.97663 20,20 0 0 1 0.494544,-1.93683 20,20 0 0 1 0.685747,-1.87792 20,20 0 0 1 0.869198,-1.80041 20,20 0 0 1 1.045414,-1.70429 20,20 0 0 1 1.209744,-1.59163 20,20 0 0 1 1.362707,-1.46244 20,20 0 0 1 1.501719,-1.31982 20,20 0 0 1 1.626257,-1.16272 20,20 0 0 1 1.734258,-0.99477 20,20 0 0 1 1.8247,-0.81649 20,20 0 0 1 1.89704,-0.63045 20,20 0 0 1 1.95078,-0.4377 20,20 0 0 1 1.98438,-0.24081 A 20,20 0 0 1 110,207 Z"
       id="path816"
       inkscape:connector-curvature="0" />
    <ellipse
       style="opacity:1;vector-effect:none;fill:#000000;fill-opacity:0.8745098;fill-rule:evenodd;stroke:#000000;stroke-width:0.2808817;stroke-linecap:butt;stroke-linejoin:miter;stroke-miterlimit:4;stroke-dasharray:none;stroke-dashoffset:0;stroke-opacity:1;marker-start:none;marker-end:none;paint-order:stroke fill markers"
       id="path1265"
       cx="110"
       cy="227"
       rx="2.058212"
       ry="1.995842" />
    <path
       style="opacity:1;vector-effect:none;fill:none;fill-opacity:1;stroke:#000000;stroke-width:0.421;stroke-linecap:butt;stroke-linejoin:miter;stroke-miterlimit:4;stroke-dasharray:none;stroke-dashoffset:0;stroke-opacity:1;marker-start:url(#marker921);marker-end:url(#marker961)"
       d="m 114.66045,227 h 12.28307"
       id="path841"
       inkscape:connector-curvature="0" />
    <path
       style="opacity:1;vector-effect:none;fill:none;fill-opacity:1;stroke:#000000;stroke-width:0.421;stroke-linecap:butt;stroke-linejoin:miter;stroke-miterlimit:4;stroke-dasharray:none;stroke-dashoffset:0;stroke-opacity:1;marker-start:url(#Arrow2Mstart);marker-end:url(#marker1331)"
       d="M 110,222.41058 V 190.91161"
       id="path843"
       inkscape:connector-curvature="0" />
    <text
       id="text2075"
       xml:space="preserve"
       style="font-size:2.64583325px;font-family:monospace;-inkscape-font-specification:'monospace, Normal';fill:#000000;fill-opacity:1;stroke:none;stroke-width:0.26458332"
       y="224.28792"
       x="118.27156"><tspan
         id="tspan2073"
         sodipodi:role="line"
         x="118.27156"
         y="224.28792"
         style="stroke-width:0.26458332">$a$</tspan></text>
    <text
       id="text2089"
       xml:space="preserve"
       style="font-size:2.64583325px;font-family:monospace;-inkscape-font-specification:'monospace, Normal';fill:#000000;fill-opacity:1;stroke:none;stroke-width:0.26458332"
       y="201.13733"
       x="112.63105"><tspan
         id="tspan2087"
         sodipodi:role="line"
         x="112.63105"
         y="201.13733"
         style="stroke-width:0.26458332">$b$</tspan></text>
  </g>
</svg>
