<?xml version="1.0" encoding="UTF-8" standalone="no"?>
<!-- Created with Inkscape (http://www.inkscape.org/) -->

<svg
   xmlns:dc="http://purl.org/dc/elements/1.1/"
   xmlns:cc="http://creativecommons.org/ns#"
   xmlns:rdf="http://www.w3.org/1999/02/22-rdf-syntax-ns#"
   xmlns:svg="http://www.w3.org/2000/svg"
   xmlns="http://www.w3.org/2000/svg"
   xmlns:sodipodi="http://sodipodi.sourceforge.net/DTD/sodipodi-0.dtd"
   xmlns:inkscape="http://www.inkscape.org/namespaces/inkscape"
   width="202.2325mm"
   height="135.32484mm"
   viewBox="0 0 202.2325 135.32484"
   version="1.1"
   id="svg8"
   inkscape:version="0.92.5 (2060ec1f9f, 2020-04-08)"
   sodipodi:docname="opgave2.svg">
  <defs
     id="defs2">
    <inkscape:path-effect
       only_selected="false"
       apply_with_weight="true"
       apply_no_weight="true"
       helper_size="0"
       steps="2"
       weight="33.333333"
       is_visible="true"
       id="path-effect968"
       effect="bspline" />
    <inkscape:path-effect
       only_selected="false"
       apply_with_weight="true"
       apply_no_weight="true"
       helper_size="0"
       steps="2"
       weight="33.333333"
       is_visible="true"
       id="path-effect964"
       effect="bspline" />
    <inkscape:path-effect
       only_selected="false"
       apply_with_weight="true"
       apply_no_weight="true"
       helper_size="0"
       steps="2"
       weight="33.333333"
       is_visible="true"
       id="path-effect960"
       effect="bspline" />
    <inkscape:path-effect
       only_selected="false"
       apply_with_weight="true"
       apply_no_weight="true"
       helper_size="0"
       steps="2"
       weight="33.333333"
       is_visible="true"
       id="path-effect956"
       effect="bspline" />
    <inkscape:path-effect
       only_selected="false"
       apply_with_weight="true"
       apply_no_weight="true"
       helper_size="0"
       steps="2"
       weight="33.333333"
       is_visible="true"
       id="path-effect952"
       effect="bspline" />
    <marker
       markerWidth="0.91100001"
       markerHeight="1.6900001"
       refX="0"
       refY="0"
       orient="auto-start-reverse"
       id="marker-arrow-0.5308">
      <g
         id="g836"
         transform="scale(2.1535293)">
        <path
           id="path834"
           inkscape:connector-curvature="0"
           style="fill:none;stroke:#000000;stroke-width:0.60000002;stroke-linecap:round;stroke-linejoin:round;stroke-miterlimit:10;stroke-dasharray:none;stroke-opacity:1"
           d="M -1.55415,2.0722 C -1.42464,1.29512 0,0.1295 0.38852,0 0,-0.1295 -1.42464,-1.29512 -1.55415,-2.0722" />
      </g>
    </marker>
    <inkscape:path-effect
       effect="bspline"
       id="path-effect947"
       is_visible="true"
       weight="33.333333"
       steps="2"
       helper_size="0"
       apply_no_weight="true"
       apply_with_weight="true"
       only_selected="false" />
    <inkscape:path-effect
       effect="bspline"
       id="path-effect943"
       is_visible="true"
       weight="33.333333"
       steps="2"
       helper_size="0"
       apply_no_weight="true"
       apply_with_weight="true"
       only_selected="false" />
    <inkscape:path-effect
       effect="bspline"
       id="path-effect939"
       is_visible="true"
       weight="33.333333"
       steps="2"
       helper_size="0"
       apply_no_weight="true"
       apply_with_weight="true"
       only_selected="false" />
    <inkscape:path-effect
       effect="bspline"
       id="path-effect935"
       is_visible="true"
       weight="33.333333"
       steps="2"
       helper_size="0"
       apply_no_weight="true"
       apply_with_weight="true"
       only_selected="false" />
    <inkscape:path-effect
       effect="bspline"
       id="path-effect931"
       is_visible="true"
       weight="33.333333"
       steps="2"
       helper_size="0"
       apply_no_weight="true"
       apply_with_weight="true"
       only_selected="false" />
    <marker
       inkscape:stockid="Arrow1Mend"
       orient="auto"
       refY="0"
       refX="0"
       id="Arrow1Mend"
       style="overflow:visible"
       inkscape:isstock="true">
      <path
         inkscape:connector-curvature="0"
         id="path1213"
         d="M 0,0 5,-5 -12.5,0 5,5 Z"
         style="fill:#ef2222;fill-opacity:1;fill-rule:evenodd;stroke:#000000;stroke-width:1.00000003pt;stroke-opacity:1"
         transform="matrix(-0.4,0,0,-0.4,-4,0)" />
    </marker>
  </defs>
  <sodipodi:namedview
     id="base"
     pagecolor="#ffffff"
     bordercolor="#666666"
     borderopacity="1.0"
     inkscape:pageopacity="0.0"
     inkscape:pageshadow="2"
     inkscape:zoom="2.697195"
     inkscape:cx="438.06797"
     inkscape:cy="230.27048"
     inkscape:document-units="mm"
     inkscape:current-layer="layer1"
     showgrid="true"
     showborder="true"
     width="200mm"
     showguides="true"
     inkscape:guide-bbox="true"
     inkscape:window-width="4038"
     inkscape:window-height="2136"
     inkscape:window-x="2589"
     inkscape:window-y="84"
     inkscape:window-maximized="0"
     inkscape:snap-grids="false">
    <inkscape:grid
       type="xygrid"
       id="grid815"
       units="mm"
       spacingx="10"
       spacingy="10"
       empspacing="4"
       dotted="false"
       originx="-4.9773766"
       originy="10.132291" />
  </sodipodi:namedview>
  <metadata
     id="metadata5">
    <rdf:RDF>
      <cc:Work
         rdf:about="">
        <dc:format>image/svg+xml</dc:format>
        <dc:type
           rdf:resource="http://purl.org/dc/dcmitype/StillImage" />
        <dc:title />
      </cc:Work>
    </rdf:RDF>
  </metadata>
  <g
     inkscape:label="Layer 1"
     inkscape:groupmode="layer"
     id="layer1"
     transform="translate(-4.9773767,-171.80744)">
    <path
       style="fill:none;stroke:#000000;stroke-width:0.26458332px;stroke-linecap:butt;stroke-linejoin:miter;stroke-opacity:1"
       d="M 20,237 V 217"
       id="path816"
       inkscape:connector-curvature="0" />
    <path
       style="fill:none;stroke:#000000;stroke-width:0.26458332px;stroke-linecap:butt;stroke-linejoin:miter;stroke-opacity:1"
       d="m 20,197 v -10 h 140 v 10 h -30 v 10"
       id="path818"
       inkscape:connector-curvature="0" />
    <path
       style="fill:none;stroke:#000000;stroke-width:0.26458332px;stroke-linecap:butt;stroke-linejoin:miter;stroke-opacity:1"
       d="m 160,197 h 30 v 10"
       id="path820"
       inkscape:connector-curvature="0" />
    <path
       style="fill:none;stroke:#000000;stroke-width:0.26458332px;stroke-linecap:butt;stroke-linejoin:miter;stroke-opacity:1"
       d="m 190,237 v 10 h -10"
       id="path822"
       inkscape:connector-curvature="0" />
    <path
       style="fill:none;stroke:#000000;stroke-width:0.26458332px;stroke-linecap:butt;stroke-linejoin:miter;stroke-opacity:1"
       d="m 190,247 v 10"
       id="path824"
       inkscape:connector-curvature="0" />
    <path
       style="fill:none;stroke:#000000;stroke-width:0.26458332px;stroke-linecap:butt;stroke-linejoin:miter;stroke-opacity:1"
       d="m 190,287 v 10 h -30 v 10 H 20 v -60"
       id="path826"
       inkscape:connector-curvature="0" />
    <path
       style="fill:none;stroke:#000000;stroke-width:0.26458332px;stroke-linecap:butt;stroke-linejoin:miter;stroke-opacity:1"
       d="m 130,237 v 10 h 20"
       id="path828"
       inkscape:connector-curvature="0" />
    <ellipse
       style="opacity:1;vector-effect:none;fill:#000000;fill-opacity:0.8745098;fill-rule:evenodd;stroke:#000000;stroke-width:0.2808817;stroke-linecap:butt;stroke-linejoin:miter;stroke-miterlimit:4;stroke-dasharray:none;stroke-dashoffset:0;stroke-opacity:1;marker-start:none;marker-end:none;paint-order:stroke fill markers"
       id="path1265"
       cx="20.003908"
       cy="196.77501"
       rx="2.058212"
       ry="1.995842" />
    <ellipse
       ry="1.995842"
       rx="2.058212"
       cy="216.95998"
       cx="19.657087"
       id="ellipse864"
       style="opacity:1;vector-effect:none;fill:#000000;fill-opacity:0.8745098;fill-rule:evenodd;stroke:#000000;stroke-width:0.2808817;stroke-linecap:butt;stroke-linejoin:miter;stroke-miterlimit:4;stroke-dasharray:none;stroke-dashoffset:0;stroke-opacity:1;marker-start:none;marker-end:none;paint-order:stroke fill markers" />
    <path
       style="fill:none;fill-opacity:1;stroke:#fa2d2d;stroke-width:0.921;stroke-linecap:butt;stroke-linejoin:miter;stroke-miterlimit:4;stroke-dasharray:none;stroke-opacity:1;marker-start:none;marker-end:none"
       d="m 150.69163,246.93735 2.27037,-4.82319 4.07634,9.89695 4.28274,-9.9596 3.92154,9.9596 4.23114,-9.77168 3.97314,9.77168 4.28274,-10.14751 L 180,247"
       id="path816-3"
       inkscape:connector-curvature="0" />
    <path
       style="fill:none;fill-opacity:1;stroke:#fa2d2d;stroke-width:0.921;stroke-linecap:butt;stroke-linejoin:miter;stroke-miterlimit:4;stroke-dasharray:none;stroke-opacity:1;marker-start:none;marker-end:none"
       d="m 190,207 4.81645,2.28463 -9.90897,4.04704 9.94688,4.31219 -9.97116,3.89205 9.75911,4.26004 -9.78339,3.94421 10.13479,4.31275 -5.1431,2.25515"
       id="path816-6"
       inkscape:connector-curvature="0" />
    <path
       inkscape:connector-curvature="0"
       id="path878"
       d="m 130,257 4.81645,2.28463 -9.90897,4.04704 9.94688,4.31219 -9.97116,3.89205 9.75911,4.26004 -9.78339,3.94421 10.13479,4.31275 -5.1431,2.25515"
       style="fill:none;fill-opacity:1;stroke:#fa2d2d;stroke-width:0.921;stroke-linecap:butt;stroke-linejoin:miter;stroke-miterlimit:4;stroke-dasharray:none;stroke-opacity:1;marker-start:none;marker-end:none" />
    <path
       style="opacity:0.87999998;vector-effect:none;fill:none;fill-opacity:1;fill-rule:evenodd;stroke:#2fb124;stroke-width:1.20000005;stroke-linecap:butt;stroke-linejoin:miter;stroke-miterlimit:4;stroke-dasharray:none;stroke-dashoffset:0;stroke-opacity:1;marker-start:none;marker-end:none;paint-order:stroke fill markers"
       d="m 189.85966,265.64306 c -3.04479,-0.0221 -4.07975,-1.25365 -4.09814,-2.63497 -0.0187,-1.40501 1.05106,-2.79021 4.09585,-2.76805 3.04479,0.0221 6.93032,2.8483 6.93032,2.8483 0,0 -3.88324,2.57688 -6.92803,2.55472 z"
       id="ellipse911"
       inkscape:connector-curvature="0"
       sodipodi:nodetypes="sascs" />
    <path
       sodipodi:nodetypes="sascs"
       inkscape:connector-curvature="0"
       id="path923"
       d="m 189.76096,271.72154 c -3.0448,-0.0222 -4.07975,-1.25365 -4.09814,-2.63497 -0.0187,-1.405 1.05106,-2.7902 4.09584,-2.76804 3.0448,0.0221 6.93032,2.8483 6.93032,2.8483 0,0 -3.88323,2.57687 -6.92802,2.55471 z"
       style="opacity:0.87999998;vector-effect:none;fill:none;fill-opacity:1;fill-rule:evenodd;stroke:#2fb124;stroke-width:1.20000005;stroke-linecap:butt;stroke-linejoin:miter;stroke-miterlimit:4;stroke-dasharray:none;stroke-dashoffset:0;stroke-opacity:1;marker-start:none;marker-end:none;paint-order:stroke fill markers" />
    <path
       style="opacity:0.87999998;vector-effect:none;fill:none;fill-opacity:1;fill-rule:evenodd;stroke:#2fb124;stroke-width:1.20000005;stroke-linecap:butt;stroke-linejoin:miter;stroke-miterlimit:4;stroke-dasharray:none;stroke-dashoffset:0;stroke-opacity:1;marker-start:none;marker-end:none;paint-order:stroke fill markers"
       d="m 189.66169,277.83506 c -3.0448,-0.0222 -4.07975,-1.25366 -4.09815,-2.63497 -0.0187,-1.40501 1.05106,-2.7902 4.09585,-2.76804 3.0448,0.0221 6.93032,2.84829 6.93032,2.84829 0,0 -3.88323,2.57688 -6.92802,2.55472 z"
       id="path925"
       inkscape:connector-curvature="0"
       sodipodi:nodetypes="sascs" />
    <path
       sodipodi:nodetypes="sascs"
       inkscape:connector-curvature="0"
       id="path927"
       d="m 189.42569,284.0527 c -3.04479,-0.0221 -4.07973,-1.25365 -4.09813,-2.63497 -0.0187,-1.405 1.05105,-2.7902 4.09585,-2.76804 3.04479,0.0221 6.93031,2.84829 6.93031,2.84829 0,0 -3.88324,2.57688 -6.92803,2.55472 z"
       style="opacity:0.87999998;vector-effect:none;fill:none;fill-opacity:1;fill-rule:evenodd;stroke:#2fb124;stroke-width:1.20000005;stroke-linecap:butt;stroke-linejoin:miter;stroke-miterlimit:4;stroke-dasharray:none;stroke-dashoffset:0;stroke-opacity:1;marker-start:none;marker-end:none;paint-order:stroke fill markers" />
    <path
       style="fill:none;stroke:#2fb124;stroke-width:4.19221497;stroke-linecap:butt;stroke-linejoin:miter;stroke-miterlimit:4;stroke-dasharray:none;stroke-opacity:1"
       d="m 79.976878,227.01156 c 0.57807,-4.7633 1.156104,-9.5263 2.566607,-13.31821 1.410503,-3.79191 3.653276,-6.61272 6.23134,-8.19641 2.578064,-1.58368 5.49136,-1.9305 8.065734,-1.67617 2.574375,0.25433 4.810511,1.10993 7.046231,1.96537"
       id="path929"
       inkscape:connector-curvature="0"
       inkscape:original-d="m 79.976878,227.01156 c 0.578299,-4.76327 1.156333,-9.52627 1.734103,-14.28901 2.243039,-2.82108 4.485814,-5.64189 6.728323,-8.46244 2.913558,-0.34708 5.826854,-0.6939 8.739886,-1.04046 2.235866,0.85513 4.472,1.71073 6.7076,2.56649"
       sodipodi:nodetypes="ccccc"
       inkscape:path-effect="#path-effect931"
       transform="matrix(-0.00410072,0.25254028,-0.32440936,-0.00236116,263.97264,237.33863)" />
    <path
       style="fill:none;stroke:#2fb124;stroke-width:4.19221497;stroke-linecap:butt;stroke-linejoin:miter;stroke-miterlimit:4;stroke-dasharray:none;stroke-opacity:1"
       d="m 103.88679,205.78614 c 1.48696,-1.31817 2.97364,-2.6361 4.45688,-3.58401 1.48323,-0.94792 2.963,-1.52595 4.47743,-1.82646 1.51443,-0.3005 3.06356,-0.3236 4.62423,-0.18484 1.56066,0.13876 3.13291,0.43933 4.32358,0.86707 1.19067,0.42774 1.99993,0.98266 2.96755,1.79189 0.96762,0.80924 2.09366,1.87283 3.21969,2.93641"
       id="path933"
       inkscape:connector-curvature="0"
       inkscape:original-d="m 103.88679,205.78614 c 1.48694,-1.31819 2.97362,-2.63612 4.46003,-3.95377 1.48003,-0.57829 2.9598,-1.15633 4.43931,-1.7341 1.5494,-0.0234 3.09853,-0.0465 4.6474,-0.0693 1.57252,0.30031 3.14477,0.60089 4.71675,0.90173 0.80951,0.55464 1.61876,1.10956 2.42775,1.66473 1.1263,1.06333 2.25235,2.12692 3.37812,3.19077"
       sodipodi:nodetypes="ccccccc"
       inkscape:path-effect="#path-effect935"
       transform="matrix(-0.00410072,0.25254028,-0.32440936,-0.00236116,263.97264,237.33863)" />
    <path
       style="fill:none;stroke:#2fb124;stroke-width:4.19221497;stroke-linecap:butt;stroke-linejoin:miter;stroke-miterlimit:4;stroke-dasharray:none;stroke-opacity:1"
       d="m 127.95615,205.78618 c 1.00136,-1.20261 2.00249,-2.40494 3.17362,-3.38756 1.17113,-0.98262 2.51215,-1.74562 3.80695,-2.21954 1.2948,-0.47393 2.54334,-0.65889 3.61848,-0.77448 1.07513,-0.11559 1.97686,-0.16183 3.08666,-0.0924 1.10981,0.0694 2.42773,0.25436 3.58371,0.69367 1.15598,0.4393 2.1502,1.13294 3.29788,2.15769 1.14768,1.02474 2.37602,2.3047 3.64079,3.62263"
       id="path937"
       inkscape:connector-curvature="0"
       inkscape:original-d="m 127.95615,205.78618 c 1.00139,-1.20259 2.00252,-2.40492 3.00339,-3.60699 1.34131,-0.76327 2.68233,-1.52627 4.02311,-2.28902 1.24884,-0.18523 2.49738,-0.3702 3.74568,-0.55491 0.90199,-0.0465 1.80372,-0.0927 2.70519,-0.13872 1.31819,0.1847 2.63611,0.36967 3.95376,0.55491 0.99448,0.69337 1.9887,1.38701 2.98266,2.08092 1.34117,1.31752 2.5298,2.63558 3.7943,3.95377"
       sodipodi:nodetypes="cccccccc"
       inkscape:path-effect="#path-effect939"
       transform="matrix(-0.00410072,0.25254028,-0.32440936,-0.00236116,263.97264,237.33863)" />
    <path
       style="fill:none;stroke:#2fb124;stroke-width:4.19221497;stroke-linecap:butt;stroke-linejoin:miter;stroke-miterlimit:4;stroke-dasharray:none;stroke-opacity:1"
       d="m 152.16424,205.78614 c 1.7413,-1.48002 3.48231,-2.95979 5.24286,-3.95389 1.76055,-0.99411 3.54119,-1.50286 5.18265,-1.75715 1.64146,-0.25429 3.14462,-0.25429 4.69355,0.0231 1.54894,0.27744 3.1446,0.83245 4.42772,1.53759 1.28312,0.70514 2.25432,1.56072 3.04853,2.34682 0.7942,0.7861 1.41158,1.50288 2.02897,2.21967"
       id="path941"
       inkscape:connector-curvature="0"
       inkscape:original-d="m 152.16424,205.78614 c 1.74128,-1.48004 3.48229,-2.95981 5.22304,-4.43932 1.78032,-0.50885 3.56096,-1.01761 5.34104,-1.52601 1.50289,-2.7e-4 3.00605,-2.7e-4 4.50867,0 1.59536,0.55455 3.19102,1.10956 4.78613,1.66474 0.97127,0.85514 1.94246,1.71072 2.9133,2.56647 0.61761,0.71649 1.23499,1.43327 1.8521,2.1503"
       inkscape:path-effect="#path-effect943"
       transform="matrix(-0.00410072,0.25254028,-0.32440936,-0.00236116,263.97264,237.33863)" />
    <path
       style="fill:none;stroke:#2fb124;stroke-width:4.19221497;stroke-linecap:butt;stroke-linejoin:miter;stroke-miterlimit:4;stroke-dasharray:none;stroke-opacity:1"
       d="m 176.78852,206.20232 c 1.78756,-1.29502 3.57481,-2.58981 5.45093,-3.4452 1.87613,-0.85538 3.84178,-1.27164 5.72117,-1.00826 1.87938,0.26338 3.69265,1.21651 5.04516,2.37248 1.35251,1.15598 2.25429,2.52021 3.12136,4.32369 0.86706,1.80348 1.6994,4.04616 2.3237,7.21387 0.62431,3.16772 1.04046,7.25994 1.45667,11.35266"
       id="path945"
       inkscape:connector-curvature="0"
       inkscape:original-d="m 176.78852,206.20232 c 1.78752,-1.29507 3.57477,-2.58986 5.36177,-3.8844 1.96525,-0.41638 3.9309,-0.83264 5.89595,-1.24856 1.80345,0.92445 3.6072,1.89569 5.4104,2.84393 0.90195,1.36383 1.80374,2.72806 2.70521,4.09249 0.83267,2.24261 1.665,4.48529 2.49711,6.72832 0.41647,4.09249 0.83263,8.18471 1.24855,12.27746"
       inkscape:path-effect="#path-effect947"
       transform="matrix(-0.00410072,0.25254028,-0.32440936,-0.00236116,263.97264,237.33863)" />
    <path
       style="fill:none;stroke:#000000;stroke-width:0.26458332px;stroke-linecap:butt;stroke-linejoin:miter;stroke-opacity:1"
       d="m 130,247 v 10"
       id="path938"
       inkscape:connector-curvature="0" />
    <path
       style="fill:none;stroke:#000000;stroke-width:0.26458332px;stroke-linecap:butt;stroke-linejoin:miter;stroke-opacity:1"
       d="m 129.85061,286.30806 v 10.90003 h 30.17251"
       id="path940"
       inkscape:connector-curvature="0" />
    <path
       sodipodi:nodetypes="sascs"
       inkscape:connector-curvature="0"
       id="path942"
       d="m 129.85966,215.64306 c -3.04479,-0.0221 -4.07975,-1.25365 -4.09814,-2.63497 -0.0187,-1.40501 1.05106,-2.79021 4.09585,-2.76805 3.04479,0.0221 6.93032,2.8483 6.93032,2.8483 0,0 -3.88324,2.57688 -6.92803,2.55472 z"
       style="opacity:0.87999998;vector-effect:none;fill:none;fill-opacity:1;fill-rule:evenodd;stroke:#2fb124;stroke-width:1.20000005;stroke-linecap:butt;stroke-linejoin:miter;stroke-miterlimit:4;stroke-dasharray:none;stroke-dashoffset:0;stroke-opacity:1;marker-start:none;marker-end:none;paint-order:stroke fill markers" />
    <path
       style="opacity:0.87999998;vector-effect:none;fill:none;fill-opacity:1;fill-rule:evenodd;stroke:#2fb124;stroke-width:1.20000005;stroke-linecap:butt;stroke-linejoin:miter;stroke-miterlimit:4;stroke-dasharray:none;stroke-dashoffset:0;stroke-opacity:1;marker-start:none;marker-end:none;paint-order:stroke fill markers"
       d="m 129.76096,221.72154 c -3.0448,-0.0222 -4.07975,-1.25365 -4.09814,-2.63497 -0.0187,-1.405 1.05106,-2.7902 4.09584,-2.76804 3.0448,0.0221 6.93032,2.8483 6.93032,2.8483 0,0 -3.88323,2.57687 -6.92802,2.55471 z"
       id="path944"
       inkscape:connector-curvature="0"
       sodipodi:nodetypes="sascs" />
    <path
       sodipodi:nodetypes="sascs"
       inkscape:connector-curvature="0"
       id="path946"
       d="m 129.66169,227.83506 c -3.0448,-0.0222 -4.07975,-1.25366 -4.09815,-2.63497 -0.0187,-1.40501 1.05106,-2.7902 4.09585,-2.76804 3.0448,0.0221 6.93032,2.84829 6.93032,2.84829 0,0 -3.88323,2.57688 -6.92802,2.55472 z"
       style="opacity:0.87999998;vector-effect:none;fill:none;fill-opacity:1;fill-rule:evenodd;stroke:#2fb124;stroke-width:1.20000005;stroke-linecap:butt;stroke-linejoin:miter;stroke-miterlimit:4;stroke-dasharray:none;stroke-dashoffset:0;stroke-opacity:1;marker-start:none;marker-end:none;paint-order:stroke fill markers" />
    <path
       style="opacity:0.87999998;vector-effect:none;fill:none;fill-opacity:1;fill-rule:evenodd;stroke:#2fb124;stroke-width:1.20000005;stroke-linecap:butt;stroke-linejoin:miter;stroke-miterlimit:4;stroke-dasharray:none;stroke-dashoffset:0;stroke-opacity:1;marker-start:none;marker-end:none;paint-order:stroke fill markers"
       d="m 129.42569,234.0527 c -3.04479,-0.0221 -4.07973,-1.25365 -4.09813,-2.63497 -0.0187,-1.405 1.05105,-2.7902 4.09585,-2.76804 3.04479,0.0221 6.93031,2.84829 6.93031,2.84829 0,0 -3.88324,2.57688 -6.92803,2.55472 z"
       id="path948"
       inkscape:connector-curvature="0"
       sodipodi:nodetypes="sascs" />
    <path
       transform="matrix(-0.00410072,0.25254028,-0.32440936,-0.00236116,203.97264,187.33863)"
       inkscape:path-effect="#path-effect952"
       sodipodi:nodetypes="ccccc"
       inkscape:original-d="m 79.976878,227.01156 c 0.578299,-4.76327 1.156333,-9.52627 1.734103,-14.28901 2.243039,-2.82108 4.485814,-5.64189 6.728323,-8.46244 2.913558,-0.34708 5.826854,-0.6939 8.739886,-1.04046 2.235866,0.85513 4.472,1.71073 6.7076,2.56649"
       inkscape:connector-curvature="0"
       id="path950"
       d="m 79.976878,227.01156 c 0.57807,-4.7633 1.156104,-9.5263 2.566607,-13.31821 1.410503,-3.79191 3.653276,-6.61272 6.23134,-8.19641 2.578064,-1.58368 5.49136,-1.9305 8.065734,-1.67617 2.574375,0.25433 4.810511,1.10993 7.046231,1.96537"
       style="fill:none;stroke:#2fb124;stroke-width:4.19221497;stroke-linecap:butt;stroke-linejoin:miter;stroke-miterlimit:4;stroke-dasharray:none;stroke-opacity:1" />
    <path
       transform="matrix(-0.00410072,0.25254028,-0.32440936,-0.00236116,203.97264,187.33863)"
       inkscape:path-effect="#path-effect956"
       sodipodi:nodetypes="ccccccc"
       inkscape:original-d="m 103.88679,205.78614 c 1.48694,-1.31819 2.97362,-2.63612 4.46003,-3.95377 1.48003,-0.57829 2.9598,-1.15633 4.43931,-1.7341 1.5494,-0.0234 3.09853,-0.0465 4.6474,-0.0693 1.57252,0.30031 3.14477,0.60089 4.71675,0.90173 0.80951,0.55464 1.61876,1.10956 2.42775,1.66473 1.1263,1.06333 2.25235,2.12692 3.37812,3.19077"
       inkscape:connector-curvature="0"
       id="path954"
       d="m 103.88679,205.78614 c 1.48696,-1.31817 2.97364,-2.6361 4.45688,-3.58401 1.48323,-0.94792 2.963,-1.52595 4.47743,-1.82646 1.51443,-0.3005 3.06356,-0.3236 4.62423,-0.18484 1.56066,0.13876 3.13291,0.43933 4.32358,0.86707 1.19067,0.42774 1.99993,0.98266 2.96755,1.79189 0.96762,0.80924 2.09366,1.87283 3.21969,2.93641"
       style="fill:none;stroke:#2fb124;stroke-width:4.19221497;stroke-linecap:butt;stroke-linejoin:miter;stroke-miterlimit:4;stroke-dasharray:none;stroke-opacity:1" />
    <path
       transform="matrix(-0.00410072,0.25254028,-0.32440936,-0.00236116,203.97264,187.33863)"
       inkscape:path-effect="#path-effect960"
       sodipodi:nodetypes="cccccccc"
       inkscape:original-d="m 127.95615,205.78618 c 1.00139,-1.20259 2.00252,-2.40492 3.00339,-3.60699 1.34131,-0.76327 2.68233,-1.52627 4.02311,-2.28902 1.24884,-0.18523 2.49738,-0.3702 3.74568,-0.55491 0.90199,-0.0465 1.80372,-0.0927 2.70519,-0.13872 1.31819,0.1847 2.63611,0.36967 3.95376,0.55491 0.99448,0.69337 1.9887,1.38701 2.98266,2.08092 1.34117,1.31752 2.5298,2.63558 3.7943,3.95377"
       inkscape:connector-curvature="0"
       id="path958"
       d="m 127.95615,205.78618 c 1.00136,-1.20261 2.00249,-2.40494 3.17362,-3.38756 1.17113,-0.98262 2.51215,-1.74562 3.80695,-2.21954 1.2948,-0.47393 2.54334,-0.65889 3.61848,-0.77448 1.07513,-0.11559 1.97686,-0.16183 3.08666,-0.0924 1.10981,0.0694 2.42773,0.25436 3.58371,0.69367 1.15598,0.4393 2.1502,1.13294 3.29788,2.15769 1.14768,1.02474 2.37602,2.3047 3.64079,3.62263"
       style="fill:none;stroke:#2fb124;stroke-width:4.19221497;stroke-linecap:butt;stroke-linejoin:miter;stroke-miterlimit:4;stroke-dasharray:none;stroke-opacity:1" />
    <path
       transform="matrix(-0.00410072,0.25254028,-0.32440936,-0.00236116,203.97264,187.33863)"
       inkscape:path-effect="#path-effect964"
       inkscape:original-d="m 152.16424,205.78614 c 1.74128,-1.48004 3.48229,-2.95981 5.22304,-4.43932 1.78032,-0.50885 3.56096,-1.01761 5.34104,-1.52601 1.50289,-2.7e-4 3.00605,-2.7e-4 4.50867,0 1.59536,0.55455 3.19102,1.10956 4.78613,1.66474 0.97127,0.85514 1.94246,1.71072 2.9133,2.56647 0.61761,0.71649 1.23499,1.43327 1.8521,2.1503"
       inkscape:connector-curvature="0"
       id="path962"
       d="m 152.16424,205.78614 c 1.7413,-1.48002 3.48231,-2.95979 5.24286,-3.95389 1.76055,-0.99411 3.54119,-1.50286 5.18265,-1.75715 1.64146,-0.25429 3.14462,-0.25429 4.69355,0.0231 1.54894,0.27744 3.1446,0.83245 4.42772,1.53759 1.28312,0.70514 2.25432,1.56072 3.04853,2.34682 0.7942,0.7861 1.41158,1.50288 2.02897,2.21967"
       style="fill:none;stroke:#2fb124;stroke-width:4.19221497;stroke-linecap:butt;stroke-linejoin:miter;stroke-miterlimit:4;stroke-dasharray:none;stroke-opacity:1" />
    <path
       transform="matrix(-0.00410072,0.25254028,-0.32440936,-0.00236116,203.97264,187.33863)"
       inkscape:path-effect="#path-effect968"
       inkscape:original-d="m 176.78852,206.20232 c 1.78752,-1.29507 3.57477,-2.58986 5.36177,-3.8844 1.96525,-0.41638 3.9309,-0.83264 5.89595,-1.24856 1.80345,0.92445 3.6072,1.89569 5.4104,2.84393 0.90195,1.36383 1.80374,2.72806 2.70521,4.09249 0.83267,2.24261 1.665,4.48529 2.49711,6.72832 0.41647,4.09249 0.83263,8.18471 1.24855,12.27746"
       inkscape:connector-curvature="0"
       id="path966"
       d="m 176.78852,206.20232 c 1.78756,-1.29502 3.57481,-2.58981 5.45093,-3.4452 1.87613,-0.85538 3.84178,-1.27164 5.72117,-1.00826 1.87938,0.26338 3.69265,1.21651 5.04516,2.37248 1.35251,1.15598 2.25429,2.52021 3.12136,4.32369 0.86706,1.80348 1.6994,4.04616 2.3237,7.21387 0.62431,3.16772 1.04046,7.25994 1.45667,11.35266"
       style="fill:none;stroke:#2fb124;stroke-width:4.19221497;stroke-linecap:butt;stroke-linejoin:miter;stroke-miterlimit:4;stroke-dasharray:none;stroke-opacity:1" />
    <path
       style="fill:none;stroke:#3c29ed;stroke-width:0.86500001;stroke-linecap:butt;stroke-linejoin:miter;stroke-miterlimit:4;stroke-dasharray:none;stroke-opacity:1"
       d="m 4.977531,241.89143 29.999998,0.0107"
       id="path827"
       inkscape:connector-curvature="0" />
    <path
       style="fill:none;stroke:#3c29ed;stroke-width:0.86500001;stroke-linecap:butt;stroke-linejoin:miter;stroke-miterlimit:4;stroke-dasharray:none;stroke-opacity:1"
       d="m 15.103874,237.3836 9.999999,0.004"
       id="path829"
       inkscape:connector-curvature="0" />
    <path
       style="fill:none;stroke:#000000;stroke-width:0.56500006;stroke-linecap:butt;stroke-linejoin:miter;stroke-miterlimit:4;stroke-dasharray:none;stroke-opacity:1"
       d="m 7.449541,247.51656 6.112259,0.002"
       id="path831"
       inkscape:connector-curvature="0" />
    <path
       style="fill:none;stroke:#000000;stroke-width:0.56500006;stroke-linecap:butt;stroke-linejoin:miter;stroke-miterlimit:4;stroke-dasharray:none;stroke-opacity:1"
       d="m 10.3175,250.5004 0.0021,-5.86279"
       id="path833"
       inkscape:connector-curvature="0" />
    <path
       style="fill:none;stroke:#000000;stroke-width:0.26458332px;stroke-linecap:butt;stroke-linejoin:miter;stroke-opacity:1"
       d="m 20,247 v -5.00578"
       id="path1003"
       inkscape:connector-curvature="0" />
    <path
       style="fill:none;stroke:#000000;stroke-width:0.26458332px;stroke-linecap:butt;stroke-linejoin:miter;stroke-opacity:1"
       d="M 20,217 7.9457546,201.55285"
       id="path1005"
       inkscape:connector-curvature="0" />
    <path
       style="opacity:0.87999998;vector-effect:none;fill:#ef2222;fill-opacity:1;stroke:#000000;stroke-width:0.465;stroke-linecap:butt;stroke-linejoin:miter;stroke-miterlimit:4;stroke-dasharray:none;stroke-dashoffset:0;stroke-opacity:1;marker-end:url(#Arrow1Mend)"
       d="m 30.017296,177.12701 h 29.9192"
       id="path1007"
       inkscape:connector-curvature="0" />
    <text
       id="text1041"
       xml:space="preserve"
       style="font-size:2.64583325px;font-family:monospace;-inkscape-font-specification:'monospace, Normal';fill:#000000;fill-opacity:1;stroke:none;stroke-width:0.26458332"
       y="173.81766"
       x="42.688789"><tspan
         id="tspan1039"
         sodipodi:role="line"
         x="42.688789"
         y="173.81766"
         style="stroke-width:0.26458332">$i$</tspan></text>
    <text
       id="text1055"
       xml:space="preserve"
       style="font-size:2.64583325px;font-family:monospace;-inkscape-font-specification:'monospace, Normal';fill:#000000;fill-opacity:1;stroke:none;stroke-width:0.26458332"
       y="219.72647"
       x="114.69106"><tspan
         id="tspan1053"
         sodipodi:role="line"
         x="114.69106"
         y="219.72647"
         style="stroke-width:0.26458332">$L$</tspan></text>
    <text
       x="202.58484"
       y="276.72009"
       style="font-size:2.64583325px;font-family:monospace;-inkscape-font-specification:'monospace, Normal';fill:#000000;fill-opacity:1;stroke:none;stroke-width:0.26458332"
       xml:space="preserve"
       id="text1069"><tspan
         style="stroke-width:0.26458332"
         y="276.72009"
         x="202.58484"
         sodipodi:role="line"
         id="tspan1067">$L$</tspan></text>
    <text
       id="text1073"
       xml:space="preserve"
       style="font-size:2.64583325px;font-family:monospace;-inkscape-font-specification:'monospace, Normal';fill:#000000;fill-opacity:1;stroke:none;stroke-width:0.26458332"
       y="271.61911"
       x="114.49487"><tspan
         id="tspan1071"
         sodipodi:role="line"
         x="114.49487"
         y="271.61911"
         style="stroke-width:0.26458332">$R$</tspan></text>
    <text
       x="162.2675"
       y="236.40274"
       style="font-size:2.64583325px;font-family:monospace;-inkscape-font-specification:'monospace, Normal';fill:#000000;fill-opacity:1;stroke:none;stroke-width:0.26458332"
       xml:space="preserve"
       id="text1087"><tspan
         style="stroke-width:0.26458332"
         y="236.40274"
         x="162.2675"
         sodipodi:role="line"
         id="tspan1085">$R$</tspan></text>
    <text
       id="text1091"
       xml:space="preserve"
       style="font-size:2.64583325px;font-family:monospace;-inkscape-font-specification:'monospace, Normal';fill:#000000;fill-opacity:1;stroke:none;stroke-width:0.26458332"
       y="223.4541"
       x="199.74007"><tspan
         id="tspan1089"
         sodipodi:role="line"
         x="199.74007"
         y="223.4541"
         style="stroke-width:0.26458332">$R$</tspan></text>
    <text
       id="text1095"
       xml:space="preserve"
       style="font-size:2.64583325px;font-family:monospace;-inkscape-font-specification:'monospace, Normal';fill:#000000;fill-opacity:1;stroke:none;stroke-width:0.26458332"
       y="242.07809"
       x="38.93058"><tspan
         id="tspan1093"
         sodipodi:role="line"
         x="38.93058"
         y="242.07809"
         style="stroke-width:0.26458332">$\mathcal{E} $</tspan></text>
  </g>
</svg>
