<?xml version="1.0" encoding="UTF-8" standalone="no"?>
<!-- Created with Inkscape (http://www.inkscape.org/) -->

<svg
   xmlns:dc="http://purl.org/dc/elements/1.1/"
   xmlns:cc="http://creativecommons.org/ns#"
   xmlns:rdf="http://www.w3.org/1999/02/22-rdf-syntax-ns#"
   xmlns:svg="http://www.w3.org/2000/svg"
   xmlns="http://www.w3.org/2000/svg"
   xmlns:sodipodi="http://sodipodi.sourceforge.net/DTD/sodipodi-0.dtd"
   xmlns:inkscape="http://www.inkscape.org/namespaces/inkscape"
   width="204.63232mm"
   height="194.80226mm"
   viewBox="0 0 204.63232 194.80226"
   version="1.1"
   id="svg8"
   inkscape:version="0.92.5 (2060ec1f9f, 2020-04-08)"
   sodipodi:docname="pol.svg">
  <defs
     id="defs2" />
  <sodipodi:namedview
     id="base"
     pagecolor="#ffffff"
     bordercolor="#666666"
     borderopacity="1.0"
     inkscape:pageopacity="0.0"
     inkscape:pageshadow="2"
     inkscape:zoom="0.66772388"
     inkscape:cx="419.14908"
     inkscape:cy="139.19826"
     inkscape:document-units="mm"
     inkscape:current-layer="layer1"
     showgrid="true"
     inkscape:window-width="1878"
     inkscape:window-height="968"
     inkscape:window-x="20"
     inkscape:window-y="50"
     inkscape:window-maximized="0"
     inkscape:snap-grids="true"
     inkscape:snap-global="true">
    <inkscape:grid
       spacingy="10"
       spacingx="10"
       units="cm"
       dotted="false"
       id="grid815"
       type="xygrid"
       originx="180.48189"
       originy="254.80227" />
  </sodipodi:namedview>
  <metadata
     id="metadata5">
    <rdf:RDF>
      <cc:Work
         rdf:about="">
        <dc:format>image/svg+xml</dc:format>
        <dc:type
           rdf:resource="http://purl.org/dc/dcmitype/StillImage" />
        <dc:title />
      </cc:Work>
    </rdf:RDF>
  </metadata>
  <g
     inkscape:groupmode="layer"
     id="layer2"
     inkscape:label="Layer 2"
     transform="translate(180.48189,-269.99999)">
    <rect
       style="fill:#f4bf75;fill-opacity:1;stroke:#f4bf75;stroke-width:0.8332532;stroke-miterlimit:4;stroke-dasharray:none;stroke-dashoffset:0;stroke-opacity:1;marker-start:none;marker-end:none"
       id="rect861"
       width="137.73648"
       height="23.187975"
       x="-136.95735"
       y="316.28094"
       ry="9.5484083e-08" />
    <path
       style="fill:none;stroke:#ff4051;stroke-width:0.35780269;stroke-linecap:butt;stroke-linejoin:miter;stroke-miterlimit:4;stroke-dasharray:none;stroke-opacity:1"
       d="M -136.95736,327.87492 H 0.77911989"
       id="path865"
       inkscape:connector-curvature="0" />
    <path
       style="fill:none;stroke:#000000;stroke-width:0.43400899;stroke-linecap:butt;stroke-linejoin:miter;stroke-miterlimit:4;stroke-dasharray:none;stroke-opacity:1"
       d="m -136.95736,327.87492 12.9128,-11.57498"
       id="path880"
       inkscape:connector-curvature="0" />
    <path
       style="fill:none;stroke:#000000;stroke-width:0.43441647;stroke-linecap:butt;stroke-linejoin:miter;stroke-miterlimit:4;stroke-dasharray:none;stroke-opacity:1"
       d="m -124.0428,316.29821 21.51956,-19.28991"
       id="path893"
       inkscape:connector-curvature="0" />
    <path
       id="path929"
       style="fill:#0d6d7c;fill-opacity:0.63255819;stroke:#000000;stroke-width:0.1526099px;stroke-linecap:butt;stroke-linejoin:miter;stroke-opacity:1"
       d="m -21.980008,333.95597 v 34.78196 m 45.912161,-46.37594 v -34.78195 m -45.912161,46.37593 45.912159,-46.37593 m -46.21585,81.15789 45.91216,-46.37594"
       inkscape:connector-curvature="0" />
    <path
       style="fill:#c6c6c6;fill-opacity:0.60784314;stroke:none;stroke-width:0.48805833;stroke-miterlimit:4;stroke-dasharray:none;stroke-dashoffset:0;stroke-opacity:1;marker-start:none;marker-end:none"
       d="m -21.442457,351.01588 v -17.00109 l 2.789015,-2.81043 2.78902,-2.81043 h 8.5813211 c 5.4979064,0 8.5813207,-0.0815 8.5813207,-0.22687 0,-0.14412 -3.0278837,-0.24886 -8.3009469,-0.28713 L -15.303668,327.81967 4.3676083,307.95079 24.038889,288.0819 v 16.99802 16.99801 L 1.2982198,345.04746 -21.442457,368.01699 Z"
       id="path940"
       inkscape:connector-curvature="0" />
    <path
       style="fill:none;stroke:#000000;stroke-width:0.61428493;stroke-linecap:butt;stroke-linejoin:miter;stroke-miterlimit:4;stroke-dasharray:1.84285467, 0.61428489;stroke-dashoffset:0;stroke-opacity:1"
       d="M -21.980008,351.34695 23.932153,304.97102"
       id="path942"
       inkscape:connector-curvature="0" />
    <path
       style="fill:none;stroke:#ff2626;stroke-width:0.15285023;stroke-linecap:butt;stroke-linejoin:miter;stroke-miterlimit:4;stroke-dasharray:none;stroke-opacity:1"
       d="M 0.77911989,327.87492 V 310.48395"
       id="path965"
       inkscape:connector-curvature="0" />
    <path
       style="fill:none;stroke:#ff2626;stroke-width:0.15285023;stroke-linecap:butt;stroke-linejoin:miter;stroke-miterlimit:4;stroke-dasharray:none;stroke-opacity:1"
       d="M 0.77911989,327.87492 V 345.2659"
       id="path967"
       inkscape:connector-curvature="0" />
  </g>
  <g
     inkscape:label="Layer 1"
     inkscape:groupmode="layer"
     id="layer1"
     transform="translate(180.48189,-356.99999)">
    <rect
       style="fill:none;fill-opacity:1;stroke:#010101;stroke-width:6.04724407;stroke-miterlimit:4;stroke-dasharray:none;stroke-dashoffset:0;stroke-opacity:1;marker-start:none;marker-end:none"
       id="rect819"
       width="0"
       height="0"
       x="0"
       y="0"
       transform="matrix(0.26458333,0,0,0.26458333,0,87)" />
    <path
       style="fill:none;fill-opacity:1;stroke:#010101;stroke-width:0.28788894;stroke-miterlimit:4;stroke-dasharray:none;stroke-dashoffset:0;stroke-opacity:1;marker-start:none;marker-end:none"
       d="m -136.95736,414.87492 c 1.63972,-3.4689 3.27945,-6.90049 4.91916,-9.06453 1.63972,-2.16405 3.27944,-3.00915 4.91917,-2.23876 1.63972,0.77039 3.27943,3.14815 4.91915,6.27286 1.63972,3.1247 3.27944,6.93483 4.91917,10.06088 1.63971,3.12606 3.27943,5.49944 4.91915,6.27286 1.63972,0.77342 3.27945,-0.0771 4.91916,-2.23876 1.63972,-2.16161 3.27944,-5.59563 4.91916,-9.06455"
       id="path827"
       inkscape:connector-curvature="0" />
    <path
       inkscape:connector-curvature="0"
       id="path849"
       d="m -102.52324,414.87492 c 1.63972,-3.4689 3.279444,-6.90049 4.919162,-9.06453 1.639719,-2.16405 3.279446,-3.00915 4.919164,-2.23876 1.639718,0.77039 3.279441,3.14815 4.919155,6.27286 1.639723,3.1247 3.279441,6.93483 4.919163,10.06088 1.639714,3.12606 3.279437,5.49944 4.919155,6.27286 1.639719,0.77342 3.279446,-0.0771 4.919164,-2.23876 1.639718,-2.16161 3.279441,-5.59563 4.919159,-9.06455"
       style="fill:none;fill-opacity:1;stroke:#010101;stroke-width:0.28788894;stroke-miterlimit:4;stroke-dasharray:none;stroke-dashoffset:0;stroke-opacity:1;marker-start:none;marker-end:none" />
    <path
       style="fill:none;fill-opacity:1;stroke:#010101;stroke-width:0.28788894;stroke-miterlimit:4;stroke-dasharray:none;stroke-dashoffset:0;stroke-opacity:1;marker-start:none;marker-end:none"
       d="m -68.089122,414.87492 c 1.639722,-3.4689 3.279445,-6.90049 4.919159,-9.06453 1.639718,-2.16405 3.279437,-3.00915 4.919168,-2.23876 1.63971,0.77039 3.279436,3.14815 4.919146,6.27286 1.639727,3.1247 3.279445,6.93483 4.919172,10.06088 1.639714,3.12606 3.279437,5.49944 4.919155,6.27287 1.639719,0.77342 3.279437,-0.0772 4.919155,-2.23876 1.639718,-2.16162 3.27945,-5.59564 4.919168,-9.06456"
       id="path827-7"
       inkscape:connector-curvature="0" />
    <path
       inkscape:connector-curvature="0"
       id="path849-5"
       d="m -33.654999,414.87492 c 1.639718,-3.4689 3.279441,-6.90049 4.91916,-9.06453 1.639712,-2.16405 3.279436,-3.00915 4.91916,-2.23876 1.639718,0.77039 3.279442,3.14815 4.919155,6.27286 1.639724,3.1247 3.279442,6.93483 4.919161,10.06088 1.639718,3.12606 3.279442,5.49944 4.9191606,6.27287 1.6397183,0.77342 3.2794422,-0.0772 4.9191605,-2.23876 1.6397183,-2.16162 3.27944219,-5.59564 4.9191605,-9.06456"
       style="fill:none;fill-opacity:1;stroke:#010101;stroke-width:0.28788894;stroke-miterlimit:4;stroke-dasharray:none;stroke-dashoffset:0;stroke-opacity:1;marker-start:none;marker-end:none" />
    <rect
       style="fill:#f4bf75;fill-opacity:1;stroke:#f4bf75;stroke-width:0.87457854;stroke-miterlimit:4;stroke-dasharray:none;stroke-dashoffset:0;stroke-opacity:1;marker-start:none;marker-end:none"
       id="rect861-3"
       width="137.59279"
       height="25.571714"
       x="454.19482"
       y="767.49005"
       ry="1.0529993e-07"
       transform="matrix(0.99999238,-0.00390299,-0.75560589,0.65502651,0,0)" />
    <path
       style="fill:none;stroke:#ff4051;stroke-width:0.30753708;stroke-linecap:butt;stroke-linejoin:miter;stroke-miterlimit:4;stroke-dasharray:none;stroke-opacity:1"
       d="M -134.91987,509.42396 2.6956141,508.88697"
       id="path865-5"
       inkscape:connector-curvature="0" />
    <path
       style="fill:none;stroke:#000000;stroke-width:0.41526306;stroke-linecap:butt;stroke-linejoin:miter;stroke-miterlimit:4;stroke-dasharray:none;stroke-opacity:1"
       d="m -137.3348,511.05411 13.21304,-11.74352"
       id="path880-6"
       inkscape:connector-curvature="0" />
    <path
       style="fill:none;stroke:#000000;stroke-width:0.39366448;stroke-linecap:butt;stroke-linejoin:miter;stroke-miterlimit:4;stroke-dasharray:none;stroke-opacity:1"
       d="m -124.12176,499.31059 21.52133,-19.29165"
       id="path893-9"
       inkscape:connector-curvature="0" />
    <path
       id="path929-1"
       style="fill:#0d6d7c;fill-opacity:0.63255819;stroke:#000000;stroke-width:0.15260991px;stroke-linecap:butt;stroke-linejoin:miter;stroke-opacity:1"
       d="m -22.057206,516.96662 v 34.78195 m 45.91216,-46.37593 v -34.78196 m -45.91216,46.37594 45.91216,-46.37594 m -46.215852,81.15789 45.912169,-46.37593"
       inkscape:connector-curvature="0" />
    <path
       style="fill:#c6c6c6;fill-opacity:0.60784314;stroke:none;stroke-width:0.49393365;stroke-miterlimit:4;stroke-dasharray:none;stroke-dashoffset:0;stroke-opacity:1;marker-start:none;marker-end:none"
       d="m -22.243254,534.49122 v -17.18504 l 2.825991,-2.84084 2.826,-2.84083 h 8.6950884 c 5.5707948,0 8.69510186,-0.0824 8.69510186,-0.22932 0,-0.14568 -3.06802876,-0.25156 -8.41100316,-0.29024 l -8.4110031,-0.0609 19.9320808,-20.08386 19.9320932,-20.08385 v 17.18193 17.18192 L 0.79892726,528.45823 -22.243254,551.67626 Z"
       id="path940-2"
       inkscape:connector-curvature="0" />
    <path
       style="fill:none;stroke:#000000;stroke-width:0.61428493;stroke-linecap:butt;stroke-linejoin:miter;stroke-miterlimit:4;stroke-dasharray:1.84285469, 0.6142849;stroke-dashoffset:0;stroke-opacity:1"
       d="m -22.057206,534.3576 45.91216,-46.37594"
       id="path942-7"
       inkscape:connector-curvature="0" />
    <path
       style="fill:none;fill-opacity:1;stroke:#010101;stroke-width:0.24744506;stroke-miterlimit:4;stroke-dasharray:none;stroke-dashoffset:0;stroke-opacity:1;marker-start:none;marker-end:none"
       d="m -134.91987,509.42396 c 4.6568,-2.58314 9.28111,-5.13855 12.80245,-6.75243 3.52137,-1.61387 5.89501,-2.24801 6.86293,-1.68215 0.96791,0.56586 0.53715,2.3257 -0.54357,4.64038 -1.08071,2.31467 -2.75786,5.13849 -3.83976,7.45417 -1.0819,2.31568 -1.50884,4.07226 -0.54357,4.64037 0.96527,0.56812 3.3437,-0.0701 6.86294,-1.68215 3.51922,-1.61206 8.14565,-4.16929 12.80245,-6.75244"
       id="path827-3"
       inkscape:connector-curvature="0" />
    <path
       inkscape:connector-curvature="0"
       id="path849-6"
       d="m -100.516,509.28971 c 4.656798,-2.58314 9.281107,-5.13855 12.80246,-6.75242 3.521354,-1.61388 5.895014,-2.24802 6.862922,-1.68216 0.967918,0.56586 0.537151,2.3257 -0.543564,4.64038 -1.080719,2.31468 -2.757867,5.13849 -3.839765,7.45417 -1.081899,2.31568 -1.508843,4.07226 -0.543565,4.64038 0.965271,0.56811 3.343687,-0.0701 6.862927,-1.68216 3.519227,-1.61206 8.145653,-4.16929 12.802459,-6.75244"
       style="fill:none;fill-opacity:1;stroke:#010101;stroke-width:0.24744506;stroke-miterlimit:4;stroke-dasharray:none;stroke-dashoffset:0;stroke-opacity:1;marker-start:none;marker-end:none" />
    <path
       style="fill:none;fill-opacity:1;stroke:#010101;stroke-width:0.24744506;stroke-miterlimit:4;stroke-dasharray:none;stroke-dashoffset:0;stroke-opacity:1;marker-start:none;marker-end:none"
       d="m -66.112126,509.15546 c 4.656797,-2.58313 9.28111,-5.13855 12.802442,-6.75242 3.521358,-1.61388 5.895009,-2.24802 6.862935,-1.68215 0.967904,0.56585 0.537155,2.3257 -0.543577,4.64037 -1.080706,2.31468 -2.757872,5.13849 -3.839757,7.45417 -1.08189,2.31568 -1.508843,4.07227 -0.543569,4.64039 0.965275,0.56811 3.343682,-0.0701 6.862914,-1.68216 3.51924,-1.61207 8.145675,-4.16929 12.802481,-6.75244"
       id="path827-7-0"
       inkscape:connector-curvature="0" />
    <path
       inkscape:connector-curvature="0"
       id="path849-5-6"
       d="m -31.708257,509.02122 c 4.656795,-2.58314 9.281104,-5.13855 12.802449,-6.75243 3.521353,-1.61387 5.895009,-2.24802 6.86293,-1.68215 0.967909,0.56586 0.537151,2.3257 -0.543568,4.64038 -1.080719,2.31467 -2.757867,5.13849 -3.83977,7.45417 -1.08189,2.31568 -1.508847,4.07226 -0.543568,4.64038 0.965278,0.56812 3.34369,-0.0701 6.862922,-1.68216 3.5192399,-1.61206 8.1456661,-4.16929 12.8024761,-6.75244"
       style="fill:none;fill-opacity:1;stroke:#010101;stroke-width:0.24744506;stroke-miterlimit:4;stroke-dasharray:none;stroke-dashoffset:0;stroke-opacity:1;marker-start:none;marker-end:none" />
    <path
       style="fill:none;stroke:#000000;stroke-width:0.39325693;stroke-linecap:butt;stroke-linejoin:miter;stroke-miterlimit:4;stroke-dasharray:none;stroke-opacity:1"
       d="m -137.03455,510.88557 v -57.87493 0"
       id="path1078"
       inkscape:connector-curvature="0" />
    <path
       style="fill:none;stroke:#000000;stroke-width:0.39325693;stroke-linecap:butt;stroke-linejoin:miter;stroke-miterlimit:4;stroke-dasharray:none;stroke-opacity:1"
       d="m -137.03455,510.88557 -17.21706,15.43331"
       id="path1080"
       inkscape:connector-curvature="0" />
    <path
       style="fill:none;stroke:#000000;stroke-width:0.39325693;stroke-linecap:butt;stroke-linejoin:miter;stroke-miterlimit:4;stroke-dasharray:none;stroke-opacity:1"
       d="m -154.25161,526.31888 -8.60853,7.71666 v 0 l -4.30427,3.85832"
       id="path1082"
       inkscape:connector-curvature="0" />
    <path
       style="fill:none;stroke:#000000;stroke-width:0.39325693;stroke-linecap:butt;stroke-linejoin:miter;stroke-miterlimit:4;stroke-dasharray:none;stroke-opacity:1"
       d="M -136.95736,414.87492 V 357 v 0"
       id="path1078-2"
       inkscape:connector-curvature="0" />
    <path
       style="fill:none;stroke:#000000;stroke-width:0.39325693;stroke-linecap:butt;stroke-linejoin:miter;stroke-miterlimit:4;stroke-dasharray:none;stroke-opacity:1"
       d="m -136.95736,414.87492 -17.21706,15.43331"
       id="path1080-6"
       inkscape:connector-curvature="0" />
    <path
       style="fill:none;stroke:#000000;stroke-width:0.39325693;stroke-linecap:butt;stroke-linejoin:miter;stroke-miterlimit:4;stroke-dasharray:none;stroke-opacity:1"
       d="m -154.17442,430.30823 -8.60852,7.71667 v 0 l -4.30427,3.85832"
       id="path1082-1"
       inkscape:connector-curvature="0" />
    <text
       id="text849"
       xml:space="preserve"
       style="font-size:2.64583325px;font-family:monospace;-inkscape-font-specification:'monospace, Normal';fill:#000000;fill-opacity:1;stroke:none;stroke-width:0.26458332"
       x="-130.81313"
       y="360.83704"><tspan
         id="tspan847"
         sodipodi:role="line"
         x="-130.81313"
         y="360.83704"
         style="stroke-width:0.26458332">$\bm{\hat{p}}$</tspan></text>
    <text
       id="text863"
       xml:space="preserve"
       style="font-size:2.64583325px;font-family:monospace;-inkscape-font-specification:'monospace, Normal';fill:#000000;fill-opacity:1;stroke:none;stroke-width:0.26458332"
       x="-130.02058"
       y="458.50253"><tspan
         id="tspan861"
         sodipodi:role="line"
         x="-130.02058"
         y="458.50253"
         style="stroke-width:0.26458332">$\bm{\hat{s}}$</tspan></text>
  </g>
</svg>
